<ttFont>
          <CharString index="0">
            -98 callsubr
            -100 callsubr
            return
          </CharString>
          <CharString index="1">
            -99 callsubr
            -80 callsubr
            return
          </CharString>
          <CharString index="2">
            431 256 rmoveto
            139 -59 83 -122 -62 callgsubr
            121 85 103 160 vhcurveto
            -208 -191 -82 callsubr
            return
          </CharString>
          <CharString index="3">
            412 -71 callsubr
            -138 -92 -126 25 callgsubr
            64 -91 136 -6 callsubr
            vhcurveto
            -41 54 rlineto
            -89 callsubr
            return
          </CharString>
          <CharString index="4">
            36 327 -38 callsubr
            175 1 62 176 172 vvcurveto
            -97 callgsubr
            return
          </CharString>
          <CharString index="5">
            -107 callgsubr
            endchar
          </CharString>
          <CharString index="6">
            hstem
            32 85 223 78 vstem
            -104 callsubr
            return
          </CharString>
          <CharString index="7">
            -171 hmoveto
            -26 15 -24 27 28 28 27 37 26 -15 20 -24 -34 -25 -19 -41 vhcurveto
            return
          </CharString>
          <CharString index="8">
            -43 -27 -30 -32 -20 13 -22 24 6 6 3 3 7 hvcurveto
            4 -4 -70 -83 64 -33 rlineto
            return
          </CharString>
          <CharString index="9">
            rmoveto
            -26 17 -24 25 33 23 27 37 26 -14 20 -26 -28 -30 -19 -41 vhcurveto
            return
          </CharString>
          <CharString index="10">
            89 vstem
            -103 callsubr
            return
          </CharString>
          <CharString index="11">
            hstem
            33 79 234 85 vstem
            -105 callsubr
            return
          </CharString>
          <CharString index="12">
            -18 callsubr
            216 -20 -101 callsubr
            return
          </CharString>
          <CharString index="13">
            -87 callgsubr
            159 -279 -53 85 vvcurveto
            53 38 26 48 56 return
          </CharString>
          <CharString index="14">
            41 50 -45 47 hhcurveto
            31 30 20 63 25 hvcurveto
            -63 35 rlineto
            -31 -14 -17 -10 -18 hhcurveto
            return
          </CharString>
          <CharString index="15">
            210 -120 98 -118 -46 callsubr
            vhcurveto
            88 hmoveto
            -54 callsubr
            return
          </CharString>
          <CharString index="16">
            -8 callgsubr
            215 -20 -96 callsubr
            return
          </CharString>
          <CharString index="17">
            -89 callgsubr
            endchar
          </CharString>
          <CharString index="18">
            -41 callgsubr
            130 205 -75 callsubr
            return
          </CharString>
          <CharString index="19">
            66 2 -85 callsubr
            return
          </CharString>
          <CharString index="20">
            178 651 rmoveto
            -40 -46 -8 -7 -50 hvcurveto
            11 -639 86 6 -7 255 91 -1 125 -271 89 32 -136 259 rlineto
            78 41 43 64 78 vvcurveto
            94 -70 97 -174 vhcurveto
            return
          </CharString>
          <CharString index="21">
            63 469 rmoveto
            0 3 -136 -69 vvcurveto
            -106 -2 -162 0 vhcurveto
            93 4 rlineto
            -2 43 -3 53 53 vvcurveto
            53 3 52 12 42 vhcurveto
            61 17 34 47 51 hhcurveto
            20 22 -7 -16 25 hvcurveto
            35 77 rlineto
            16 -27 -28 9 -27 hhcurveto
            -53 -50 -32 -68 -36 hvcurveto
            -6 -1 -9 95 rlineto
            return
          </CharString>
          <CharString index="22">
            -1 -66 -2 -323 -1 -23 rlinecurve
            90 12 rlineto
            0 -2 return
          </CharString>
          <CharString index="23">
            rmoveto
            -102 callsubr
          </CharString>
          <CharString index="24">
            38 callsubr
            130 -142 rlineto
            22 hlineto
            131 142 -82 35 -60 -104 rlineto
            endchar
          </CharString>
          <CharString index="25">
            rmoveto
            -72 -39 85 86 90 40 82 91 93 10 -108 -64 -111 -47 -60 -76 hvcurveto
            return
          </CharString>
          <CharString index="26">
            64 2 -80 callgsubr
            -149 vlineto
            return
          </CharString>
          <CharString index="27">
            0 71 108 53 vvcurveto
            35 -18 22 -37 vhcurveto
            return
          </CharString>
          <CharString index="28">
            rmoveto
            62 hlineto
            3 -87 1 -175 -68 callsubr
            39 182 173 -28 callgsubr
            rlineto
            return
          </CharString>
          <CharString index="29">
            30 130 rmoveto
            -82 62 -56 86 55 56 28 25 17 vhcurveto
            3 -2 rlineto
            return
          </CharString>
          <CharString index="30">
            35 -4 72 280 72 246 -20 hstem
            44 88 240 85 vstem
            409 666 rmoveto
            -236 -24 -129 -220 -181 vvcurveto
            -132 67 -113 143 118 85 110 112 113 -70 89 -108 -72 -57 -47 -9 -5 vhcurveto
            21 93 107 122 176 17 rrcurveto
            -188 -528 rmoveto
            -90 -39 75 61 102 51 42 80 77 32 -88 -60 -76 -54 -56 -57 hvcurveto
            endchar
          </CharString>
          <CharString index="31">
            17 417 rmoveto
            -81 callsubr
            return
          </CharString>
          <CharString index="32">
            rmoveto
            69 24 -54 -92 hvcurveto
            -224 -2 rlineto
            61 1 44 87 86 hhcurveto
            return
          </CharString>
          <CharString index="33">
            rmoveto
            -89 -11 -119 -100 -64 -71 52 34 -36 vhcurveto
            -49 -75 rlineto
            -58 64 56 -43 83 hhcurveto
            180 30 -10 callsubr
            244 0 hvcurveto
            -90 -7 rlineto
            0 10 -265 -86 vvcurveto
            return
          </CharString>
          <CharString index="34">
            -34 -40 34 -47 hhcurveto
            -34 -38 -18 -64 -39 hvcurveto
            return
          </CharString>
          <CharString index="35">
            38 callsubr
            128 -142 55 35 rlineto
            return
          </CharString>
          <CharString index="36">
            204 rmoveto
            4 24 2 25 24 vvcurveto
            108 -41 92 -115 return
          </CharString>
          <CharString index="37">
            hstem
            363 80 vstem
            49 465 -90 callgsubr
            return
          </CharString>
          <CharString index="38">
            -47 callsubr
            -14 -211 rmoveto
            -40 -25 35 36 37 26 35 53 54 4 -44 -28 -47 -26 -24 -46 hvcurveto
            return
          </CharString>
          <CharString index="39">
            36 callgsubr
            -40 -88 -85 hhcurveto
            -27 -32 9 20 -36 hvcurveto
            -36 -83 rlineto
            -17 37 39 -10 44 hhcurveto
            180 return
          </CharString>
          <CharString index="40">
            -73 callsubr
            endchar
          </CharString>
          <CharString index="41">
            vvcurveto
            -57 -37 -53 -61 -44 -49 16 19 -33 vhcurveto
            -25 -78 rlineto
            -22 42 47 -9 46 -24 callsubr
            return
          </CharString>
          <CharString index="42">
            -79 callgsubr
            14 61 -32 callsubr
            return
          </CharString>
          <CharString index="43">
            3 -96 3 -221 -29 -85 callgsubr
            return
          </CharString>
          <CharString index="44">
            rmoveto
            5 -292 38 -41 rlineto
            17 22 35 11 35 hhcurveto
            75 76 -39 -100 -69 -43 -66 -76 -39 -60 19 19 -17 callgsubr
            125 107 91 132 134 -103 71 -108 -29 -28 -6 -10 -27 hvcurveto
            -3 174 262 -5 rlineto
            hintmask 11011100
            8 83 rlineto
            endchar
          </CharString>
          <CharString index="45">
            57 647 rmoveto
            6 -647 81 3 11 649 rlineto
            return
          </CharString>
          <CharString index="46">
            hstem
            41 71 199 80 vstem
            -84 callgsubr
            42 -52 -57 17 -69 -9 callgsubr
            -168 270 return
          </CharString>
          <CharString index="47">
            -83 564 77 -57 -21 46 32 -32 66 7 -20 hstemhm
            hintmask 01101000
            85 563 -43 callgsubr
            hintmask 10001000
            -93 callsubr
            hintmask 01010000
            -67 callsubr
          </CharString>
          <CharString index="48">
            12 405 rmoveto
            -71 callgsubr
            return
          </CharString>
          <CharString index="49">
            666 rmoveto
            -401 -649 63 -35 406 648 rlineto
            return
          </CharString>
          <CharString index="50">
            339 266 rmoveto
            207 369 -20 callgsubr
            239 -343 -9 -266 rlineto
            103 hlineto
            return
          </CharString>
          <CharString index="51">
            -33 callsubr
            214 -76 callgsubr
            return
          </CharString>
          <CharString index="52">
            -60 callgsubr
            hvcurveto
            -44 -397 -35 callsubr
          </CharString>
          <CharString index="53">
            155 71 91 67 91 72 -78 -141 return
          </CharString>
          <CharString index="54">
            17 13 28 10 25 hhcurveto
            27 23 -11 -28 -30 -28 -26 -56 hvcurveto
            -8 -50 rlineto
            1 6 7 0 4 hhcurveto
            53 31 -30 -48 -30 -21 -28 -45 -22 -22 8 15 -14 hvcurveto
            -37 -52 rlineto
            -19 30 32 -8 30 hhcurveto
            97 50 68 62 37 -27 43 -50 14 hvcurveto
            return
          </CharString>
          <CharString index="55">
            hvcurveto
            -75 callgsubr
            return
          </CharString>
          <CharString index="56">
            vvcurveto
            -34 -30 -33 -37 callgsubr
            return
          </CharString>
          <CharString index="57">
            274 72 -54 -21 77 -20 hstemhm
            hintmask 01100000
            42 348 rmoveto
            -12 -76 -24 callgsubr
            77 -27 callsubr
          </CharString>
          <CharString index="58">
            -32 -14 -22 -27 -49 hhcurveto
            -83 -6 86 75 80 3 28 5 72 hvcurveto
            118 4 return
          </CharString>
          <CharString index="59">
            483 rmoveto
            -154 -3 rlineto
            117 51 64 77 31 36 -11 -22 39 vhcurveto
            4 -275 1 -49 -26 -21 callsubr
            385 0 vhcurveto
            -4 2 -80 -26 rlineto
            7 -12 -46 24 -74 hhcurveto
            return
          </CharString>
          <CharString index="60">
            -32 callgsubr
            80 74 64 -40 62 -90 hvcurveto
            return
          </CharString>
          <CharString index="61">
            -118 -122 -112 -209 return
          </CharString>
          <CharString index="62">
            -136 -62 -105 -122 -110 49 -113 142 49 48 23 59 43 hvcurveto
            2 -12 1 -16 -18 vvcurveto
            return
          </CharString>
          <CharString index="63">
            12 callsubr
            39 -95 117 95 41 47 56 27 vhcurveto
            -64 31 rlineto
            return
          </CharString>
          <CharString index="64">
            -52 callsubr
            306 95 vvcurveto
            return
          </CharString>
          <CharString index="65">
            rmoveto
            1 72 73 1 72 hhcurveto
            -71 -1 -75 -1 -71 vhcurveto
            74 hlineto
            -2 71 0 75 71 vvcurveto
            72 72 -1 -1 73 hvcurveto
            74 vlineto
            -2 -73 -72 0 -72 hhcurveto
            73 0 70 2 74 vhcurveto
            -74 hlineto
            1 return
          </CharString>
          <CharString index="66">
            77 -32 32 -32 66 7 -20 hstemhm
            return
          </CharString>
          <CharString index="67">
            -27 callgsubr
            hvcurveto
            47 406 -23 callsubr
            endchar
          </CharString>
          <CharString index="68">
            -64 callgsubr
            20 77 -135 -12 rlineto
            return
          </CharString>
          <CharString index="69">
            rmoveto
            -31 callgsubr
            vhcurveto
            return
          </CharString>
          <CharString index="70">
            rmoveto
            -70 -35 -53 -52 -49 36 -47 62 66 31 57 53 47 -28 44 -62 hvcurveto
            -10 -147 -30 callsubr
          </CharString>
          <CharString index="71">
            -98 70 vlineto
            -3 97 rlineto
            45 hlineto
            -5 66 -42 -1 -4 133 -64 2 4 -136 rlineto
            return
          </CharString>
          <CharString index="72">
            rmoveto
            -79 -43 56 85 114 67 67 76 72 30 -61 -67 -90 -52 -104 -71 hvcurveto
            endchar
          </CharString>
          <CharString index="73">
            72 -54 callgsubr
            16 -39 17 -41 -40 vvcurveto
            -57 return
          </CharString>
          <CharString index="74">
            -84 -1 86 -67 -21 296 84 190 81 return
          </CharString>
          <CharString index="75">
            rmoveto
            65 292 86 -296 rlineto
            return
          </CharString>
          <CharString index="76">
            -20 hstem
            251 93 vstem
            -57 callsubr
            return
          </CharString>
          <CharString index="77">
            rmoveto
            -26 -14 23 22 24 15 23 33 33 3 -29 -18 -30 -16 -15 -28 hvcurveto
            endchar
          </CharString>
          <CharString index="78">
            -163 -635 85 -17 41 185 return
          </CharString>
          <CharString index="79">
            -93 -6 rlineto
            0 4 -64 -77 -45 -2 return
          </CharString>
          <CharString index="80">
            0 hvcurveto
            hintmask 10000000
            0 -82 -2 -50 vhcurveto
            hintmask 01100000
            -8 -50 0 2 -51 hvcurveto
            endchar
          </CharString>
          <CharString index="81">
            vstem
            7 647 rmoveto
            69 10 rlineto
            2 -95 3 -220 -64 -21 callsubr
            387 0 vhcurveto
            -168 -8 rlineto
            return
          </CharString>
          <CharString index="82">
            -248 529 26 callsubr
            50 37 callsubr
            105 529 -84 callsubr
          </CharString>
          <CharString index="83">
            hhcurveto
            127 31 84 -52 callgsubr
            return
          </CharString>
          <CharString index="84">
            rmoveto
            83 37 -70 -74 -95 -54 -85 -81 -81 -29 55 74 90 48 105 77 hvcurveto
            return
          </CharString>
          <CharString index="85">
            -317 -7 rlineto
            109 59 74 75 27 29 -9 -19 29 vhcurveto
            -4 vlineto
            hintmask 11101100
            -8 -11 -3 -12 -11 vvcurveto
            -33 25 -16 28 32 34 21 42 return
          </CharString>
          <CharString index="86">
            vvcurveto
            -283 vlineto
            80 6 2 275 rlineto
            66 9 return
          </CharString>
          <CharString index="87">
            39 -31 -48 17 -54 hhcurveto
            -45 callsubr
            return
          </CharString>
          <CharString index="88">
            62 hlineto
            3 -87 1 -175 -64 vvcurveto
            return
          </CharString>
          <CharString index="89">
            -19 -5 66 142 57 147 70 return
          </CharString>
          <CharString index="90">
            1 callgsubr
            197 93 -22 callgsubr
            return
          </CharString>
          <CharString index="91">
            146 80 rmoveto
            317 503 rlineto
            61 -407 vlineto
            -1 -89 100 7 94 3 104 1 rlinecurve
            -323 -512 rlineto
            return
          </CharString>
          <CharString index="92">
            537 -21 177 -20 hstem
            return
          </CharString>
          <CharString index="93">
            -2 rmoveto
            -2 callsubr
            74 vlineto
            -1 callgsubr
            return
          </CharString>
          <CharString index="94">
            87 6 rlineto
            -3 51 0 89 76 vvcurveto
            return
          </CharString>
          <CharString index="95">
            57 -2 281 0 return
          </CharString>
          <CharString index="96">
            -94 -2 -94 -2 -96 return
          </CharString>
          <CharString index="97">
            182 173 57 -2 return
          </CharString>
          <CharString index="98">
            4 3 -21 191 61 return
          </CharString>
          <CharString index="99">
            -28 callgsubr
            -5 -67 rlineto
            -19 callsubr
            return
          </CharString>
          <CharString index="100">
            6 207 -61 2 rcurveline
            -6 -73 -9 -1 rlineto
            return
          </CharString>
          <CharString index="101">
            98 54 36 34 28 return
          </CharString>
          <CharString index="102">
            42 21 24 14 38 hhcurveto
            hintmask 10100000
            38 91 -56 60 hhcurveto
            60 37 24 70 36 hvcurveto
            return
          </CharString>
          <CharString index="103">
            -46 -19 -30 -33 -30 20 -15 31 42 27 28 33 30 -24 17 -31 hvcurveto
            endchar
          </CharString>
          <CharString index="104">
            rmoveto
            -67 -52 -87 -89 -10 callgsubr
            vhcurveto
            return
          </CharString>
          <CharString index="105">
            168 3 168 0 168 -3 rrcurveto
            return
          </CharString>
          <CharString index="106">
            81 -9 6 callgsubr
            return
          </CharString>
          <CharString index="107">
            5 208 1 212 -7 callsubr
            return
          </CharString>
          <CharString index="108">
            -244 2 callgsubr
            return
          </CharString>
          <CharString index="109">
            12 callgsubr
            hintmask 01100000
            9 callsubr
            return
          </CharString>
          <CharString index="110">
            5 callgsubr
            -197 -66 -159 -173 return
          </CharString>
          <CharString index="111">
            79 43 36 47 43 hvcurveto
            5 -4 -11 return
          </CharString>
          <CharString index="112">
            -72 23 rlineto
            -35 -16 -27 -28 -54 hhcurveto
            return
          </CharString>
          <CharString index="113">
            239 -74 74 424 -20 hstemhm
            313 85 hintmask 10110000
            313 return
          </CharString>
          <CharString index="114">
            212 -5 rmoveto
            4 callsubr
            -297 return
          </CharString>
          <CharString index="115">
            9 callgsubr
            -9 582 -94 -8 rlineto
            return
          </CharString>
          <CharString index="116">
            84 84 -1 -1 84 hvcurveto
            74 vlineto
            return
          </CharString>
          <CharString index="117">
            -20 19 callsubr
            return
          </CharString>
          <CharString index="118">
            -84 -84 0 2 -84 hvcurveto
            return
          </CharString>
          <CharString index="119">
            -64 vvcurveto
            -129 return
          </CharString>
          <CharString index="120">
            -5 callgsubr
            hstem
            33 125 29 25 callsubr
            103 return
          </CharString>
          <CharString index="121">
            25 -48 -40 15 -55 hhcurveto
            -138 -87 -116 -139 return
          </CharString>
          <CharString index="122">
            551 -89 callgsubr
            return
          </CharString>
          <CharString index="123">
            -66 30 rlineto
            hintmask 10100000
            -42 -21 -24 -14 -38 hhcurveto
            return
          </CharString>
          <CharString index="124">
            -38 -91 56 -60 hhcurveto
            -60 -37 -24 -70 -36 hvcurveto
            return
          </CharString>
          <CharString index="125">
            65 65 192 -77 77 hstemhm
            92 79 208 return
          </CharString>
          <CharString index="126">
            hstemhm
            30 81 186 return
          </CharString>
          <CharString index="127">
            -11 -28 vhcurveto
            -78 -34 -7 -40 75 2 rlineto
            return
          </CharString>
          <CharString index="128">
            80 274 74 155 78 3 -20 hstemhm
            return
          </CharString>
          <CharString index="129">
            rlineto
            171 101 -60 -202 hvcurveto
            endchar
          </CharString>
          <CharString index="130">
            32 16 -21 403 83 return
          </CharString>
          <CharString index="131">
            120 -99 86 return
          </CharString>
          <CharString index="132">
            125 vstem
            return
          </CharString>
          <CharString index="133">
            108 hstem
            return
          </CharString>
          <CharString index="134">
            rmoveto
            -198 -129 -56 -138 vhcurveto
            return
          </CharString>
          <CharString index="135">
            74 215 -20 hstem
            267 72 vstem
            return
          </CharString>
          <CharString index="136">
            -195 -249 77 826 77 hstemhm
            return
          </CharString>
          <CharString index="137">
            rlineto
            93 hlineto
            -17 648 rlineto
            endchar
          </CharString>
          <CharString index="138">
            hhcurveto
            67 96 -37 -119 hvcurveto
            endchar
          </CharString>
          <CharString index="139">
            -27 30 vhcurveto
            return
          </CharString>
          <CharString index="140">
            212 61 -21 554 -20 hstem
            return
          </CharString>
          <CharString index="141">
            rmoveto
            -113 -100 -23 -88 -8 vhcurveto
            return
          </CharString>
          <CharString index="142">
            4 -61 430 6 4 90 rlineto
            return
          </CharString>
          <CharString index="143">
            -234 51 92 38 return
          </CharString>
          <CharString index="144">
            120 vstem
            return
          </CharString>
          <CharString index="145">
            rmoveto
            -82 -35 return
          </CharString>
        <CharString name=".notdef">
          78 4 63 -46 -21 592 59 2 -20 hstemhm
          50 68 308 68 hintmask 10011100
          496 653 rmoveto
          -446 -3 rlineto
          hintmask 01101100
          -650 vlineto
          443 8 rlineto
          hintmask 10011100
          -218 370 rmoveto
          -143 212 285 5 -138 -217 rlineto
          -8 -102 rmoveto
          4 hlineto
          145 -210 -276 2 rlineto
          93 264 rmoveto
          -119 -200 1 377 rlineto
          196 -178 rmoveto
          112 177 -1 -343 rlineto
          endchar
        </CharString>
        <CharString name=".null">
          -468 endchar
        </CharString>
        <CharString name="A">
          6 8 -21 186 61 414 -20 hstem
          321 171 rmoveto
          54 -184 87 13 -208 648 -79 -6 -165 -642 86 -13 42 188 rlineto
          14 61 -32 callsubr
          endchar
        </CharString>
        <CharString name="AE">
          246 -2 80 -69 -21 577 81 6 -20 hstemhm
          376 86 hintmask 10101000
          383 3 rmoveto
          301 -11 rlineto
          85 vlineto
          -218 2 -2 144 165 18 -2 73 -162 -20 -6 271 218 1 rlineto
          hintmask 10011000
          -4 86 -333 -12 -352 -629 rlineto
          hintmask 01101000
          79 -23 104 195 209 25 rlineto
          -7 353 rmoveto
          6 -285 -172 -20 rlineto
          endchar
        </CharString>
        <CharString name="Aacute">
          -9 callsubr
          629 -20 hstem
          -65 callsubr
          -141 489 -90 callsubr
        </CharString>
        <CharString name="Acircumflex">
          -9 callsubr
          628 -20 hstem
          -79 callgsubr
          145 510 -101 callgsubr
          -72 -553 -32 callsubr
          endchar
        </CharString>
        <CharString name="Adieresis">
          -9 callsubr
          469 110 hstem
          82 27 callgsubr
          vstem
          -65 callsubr
          -48 521 -105 callgsubr
        </CharString>
        <CharString name="Agrave">
          -9 callsubr
          628 -20 hstem
          -65 callsubr
          -125 630 -73 callgsubr
        </CharString>
        <CharString name="Aring">
          -9 callsubr
          546 55 hstem
          117 55 84 56 vstem
          222 835 rmoveto
          -70 -35 -53 -52 -37 20 -36 36 -15 hvcurveto
          -29 callsubr
          183 -4 55 -189 86 19 -206 641 rlineto
          39 17 19 44 41 vvcurveto
          47 -28 44 -62 vhcurveto
          -72 -599 -32 callsubr
          -89 456 -30 callsubr
        </CharString>
        <CharString name="Atilde">
          -9 callsubr
          450 -41 callsubr
          hintmask 11010100
          -79 callgsubr
          -28 508 -43 callgsubr
          hintmask 11100100
          -93 callsubr
          hintmask 11001000
          -73 callsubr
          108 -477 -32 callsubr
          endchar
        </CharString>
        <CharString name="B">
          -23 -4 75 234 47 232 67 hstemhm
          58 83 163 85 -48 48 -48 84 hintmask 11110010
          197 651 rmoveto
          -41 -56 -6 -15 -45 hvcurveto
          7 -630 rlineto
          -3 19 16 -1 19 hhcurveto
          161 148 19 177 114 -76 40 -39 8 hvcurveto
          hintmask 11110100
          50 30 29 57 54 vvcurveto
          78 -56 78 -136 vhcurveto
          -54 -355 rmoveto
          6 21 25 3 22 hhcurveto
          69 61 -32 -84 -83 -69 -35 -69 -19 -22 2 4 -17 hvcurveto
          -5 499 rmoveto
          5 19 20 3 17 hhcurveto
          hintmask 11111000
          63 45 -36 -68 -86 -49 -35 -113 -7 hvcurveto
          endchar
        </CharString>
        <CharString name="C">
          14 -13 81 502 81 hstem
          30 89 vstem
          378 524 rmoveto
          3 callsubr
          -185 58 -147 193 119 40 67 54 22 hvcurveto
          -16 callgsubr
          endchar
        </CharString>
        <CharString name="CR">
          -215 endchar
        </CharString>
        <CharString name="Ccedilla">
          14 36 callsubr
          40 81 502 81 hstem
          30 89 188 77 vstem
          223 -78 callgsubr
          9 41 110 5 38 64 21 52 rlinecurve
          -16 callgsubr
          3 callsubr
          -170 49 -137 156 -22 hvcurveto
          endchar
        </CharString>
        <CharString name="D">
          69 -1 68 516 64 hstem
          57 87 270 93 vstem
          192 -1 rmoveto
          -7 callgsubr
          12 -640 rlineto
          -4 26 79 -2 24 hhcurveto
          222 322 27 callsubr
          -5 516 22 callsubr
        </CharString>
        <CharString name="Delta">
          6 2 74 -54 -21 647 24 callgsubr
          469 3 rmoveto
          -203 642 -77 3 rlineto
          hintmask 01100000
          -171 -647 rlineto
          339 77 rmoveto
          -232 -3 102 453 rlineto
          endchar
        </CharString>
        <CharString name="E">
          -33 callsubr
          8 -20 hstemhm
          48 90 hintmask 10110100
          -14 callgsubr
          hintmask 01110100
          -86 callgsubr
          rlineto
          hintmask 10101100
          -4 89 rlineto
          endchar
        </CharString>
        <CharString name="Eacute">
          -33 callsubr
          215 -76 callgsubr
          -197 65 -90 callsubr
        </CharString>
        <CharString name="Ecircumflex">
          -56 callsubr
          -75 29 -100 callgsubr
        </CharString>
        <CharString name="Edieresis">
          -33 callsubr
          54 26 callgsubr
          48 90 -62 98 73 107 hintmask 10111101
          -14 callgsubr
          hintmask 01111101
          -86 callgsubr
          -4 89 rlineto
          -98 96 -98 callsubr
          hintmask 10111011
          -36 callgsubr
        </CharString>
        <CharString name="Egrave">
          -56 callsubr
          -218 206 -73 callgsubr
        </CharString>
        <CharString name="Eth">
          105 -1 68 215 74 227 64 hstem
          89 90 271 93 vstem
          3 280 rmoveto
          0 46 1 45 1 vhcurveto
          5 -277 rlineto
          -4 26 79 -2 24 hhcurveto
          -7 callgsubr
          5 -291 rlineto
          -19 -34 1 1 -24 hvcurveto
          435 -35 27 callsubr
          -2 214 rlineto
          20 49 -2 13 hhcurveto
          4 27 77 0 0 -71 -2 -43 hvcurveto
          -2 229 22 callsubr
        </CharString>
        <CharString name="Euro">
          108 -13 81 173 63 55 62 149 81 hstem
          370 240 rmoveto
          19 66 rlineto
          0 -127 -2 -67 vhcurveto
          -2 17 0 18 18 vvcurveto
          2 17 vlineto
          27 140 -2 -1 20 hvcurveto
          22 67 rlineto
          0 -168 -2 -52 vhcurveto
          80 15 48 69 97 hhcurveto
          36 35 -14 -32 22 hvcurveto
          5 callgsubr
          -165 -73 -97 -133 -19 hvcurveto
          -18 1 -18 0 -15 1 -27 -66 rcurveline
          0 32 1 40 vhcurveto
          -53 vlineto
          -20 1 -18 0 -7 1 -29 -67 rcurveline
          0 38 1 42 vhcurveto
          -142 19 68 -112 158 hhcurveto
          119 40 67 54 22 hvcurveto
          5 callsubr
          -94 -49 79 95 -20 hvcurveto
          1 hlineto
          8 112 0 -2 45 hvcurveto
          endchar
        </CharString>
        <CharString name="F">
          -121 23 -21 287 84 196 75 5 -20 hstemhm
          46 85 hintmask 11101000
          130 3 rmoveto
          3 287 170 -2 4 89 -171 -7 rlineto
          202 vlineto
          213 -6 rlineto
          hintmask 11011000
          83 vlineto
          -299 -9 -8 -638 rlineto
          endchar
        </CharString>
        <CharString name="G">
          22 -7 76 185 69 248 80 hstemhm
          25 86 165 184 -81 81 hintmask 11111000
          276 326 rmoveto
          -71 vlineto
          hintmask 11110100
          103 -1 rlineto
          -116 4 -55 -69 -62 hhcurveto
          -114 -41 161 86 129 57 126 112 43 31 -26 -27 22 hvcurveto
          71 49 rlineto
          58 -43 -42 26 -70 hhcurveto
          -182 -85 -160 -169 -179 61 -150 194 134 46 154 105 22 -1 23 -2 24 hvcurveto
          endchar
        </CharString>
        <CharString name="H">
          57 15 -21 277 84 297 -20 hstem
          60 86 236 92 vstem
          380 652 rmoveto
          4 -297 rlineto
          -233 hlineto
          -10 297 rlineto
          -92 hlineto
          23 -658 rlineto
          80 277 233 hlineto
          5 -270 30 callsubr
        </CharString>
        <CharString name="I">
          21 -21 652 -46 callgsubr
          endchar
        </CharString>
        <CharString name="IJ">
          214 -1 90 566 -20 hstem
          60 89 400 82 vstem
          -62 callsubr
          394 -355 -74 callsubr
          endchar
        </CharString>
        <CharString name="Iacute">
          21 -21 863 -46 callgsubr
          -109 69 -90 callsubr
        </CharString>
        <CharString name="Icircumflex">
          21 -21 862 -46 callgsubr
          18 33 -100 callgsubr
        </CharString>
        <CharString name="Idieresis">
          21 -21 702 26 callgsubr
          -21 98 -17 89 1 98 hintmask 11011000
          -62 callsubr
          -5 100 -98 callsubr
          hintmask 11101000
          -36 callgsubr
        </CharString>
        <CharString name="Igrave">
          21 -21 862 -46 callgsubr
          -105 210 -73 callgsubr
        </CharString>
        <CharString name="Itilde">
          21 -21 693 -41 callsubr
          60 89 hintmask 10101100
          -62 callsubr
          -157 40 -43 callgsubr
          hintmask 11001100
          -93 callsubr
          hintmask 10010100
          -67 callsubr
        </CharString>
        <CharString name="J">
          6 -1 90 566 -49 callgsubr
          endchar
        </CharString>
        <CharString name="Jcircumflex">
          6 -1 90 763 -49 callgsubr
          85 378 -100 callgsubr
        </CharString>
        <CharString name="K">
          31 7 -21 675 -20 hstem
          52 89 vstem
          144 268 rmoveto
          274 -282 69 58 -281 280 242 304 -83 33 -227 -312 6 304 -96 -6 9 -654 91 10 rlineto
          endchar
        </CharString>
        <CharString name="L">
          29 callgsubr
          54 92 hintmask 10110000
          60 3 rmoveto
          hintmask 01110000
          8 callsubr
          endchar
        </CharString>
        <CharString name="Ldotaccent">
          -21 -3 78 -63 -21 403 108 152 -20 hstemhm
          54 92 145 120 hintmask 10111100
          60 3 rmoveto
          hintmask 01111100
          8 callsubr
          298 -252 -84 callsubr
        </CharString>
        <CharString name="Lslash">
          29 callgsubr
          -41 190 hintmask 10110000
          -39 187 rmoveto
          94 71 5 -255 rlineto
          hintmask 01110000
          9 callgsubr
          -4 255 120 90 -3 72 -118 -87 -4 252 -94 -8 6 -311 -98 -71 rlineto
          endchar
        </CharString>
        <CharString name="M">
          174 11 -21 667 -20 hstem
          58 80 375 75 vstem
          600 3 rmoveto
          -23 650 -87 2 -158 -536 -186 535 -71 3 -33 -662 94 -5 5 453 159 -443 67 2 137 434 18 -441 rlineto
          endchar
        </CharString>
        <CharString name="N">
          60 9 -21 669 -35 callgsubr
          endchar
        </CharString>
        <CharString name="Nacute">
          60 9 -21 864 -35 callgsubr
          107 716 -90 callsubr
        </CharString>
        <CharString name="Ntilde">
          59 9 -21 729 -41 callsubr
          58 84 240 86 hintmask 10101110
          -56 callgsubr
          83 722 -43 callgsubr
          hintmask 11001110
          -93 callsubr
          hintmask 10010110
          -67 callsubr
        </CharString>
        <CharString name="O">
          80 -9 6 callgsubr
          hstem
          35 38 callgsubr
          89 vstem
          35 327 rmoveto
          -167 81 -169 160 175 62 177 172 -97 callgsubr
          endchar
        </CharString>
        <CharString name="OE">
          295 -9 78 224 84 190 81 8 -20 hstemhm
          36 38 callgsubr
          92 hintmask 11101100
          421 640 rmoveto
          1 -50 rlineto
          39 -42 -53 19 -51 hhcurveto
          -46 callsubr
          -31 callgsubr
          hvcurveto
          67 1 51 26 37 42 1 -59 rcurveline
          -86 callgsubr
          rlineto
          hintmask 11011100
          -4 89 rlineto
          -600 -329 rmoveto
          -54 callsubr
          -202 -57 -83 -87 -11 callgsubr
          vhcurveto
          endchar
        </CharString>
        <CharString name="Oacute">
          -1 callsubr
          221 -88 callgsubr
          83 400 -90 callsubr
        </CharString>
        <CharString name="Ocircumflex">
          -69 callgsubr
          214 358 -100 callgsubr
        </CharString>
        <CharString name="Odieresis">
          -1 callsubr
          50 110 hstem
          36 88 21 27 callgsubr
          11 -97 callsubr
          192 421 -105 callgsubr
        </CharString>
        <CharString name="Ograve">
          -69 callgsubr
          103 535 -73 callgsubr
        </CharString>
        <CharString name="Omega">
          215 5 80 487 76 hstem
          61 88 381 92 vstem
          61 327 rmoveto
          -89 35 -88 64 -67 vhcurveto
          -109 8 -3 -86 rlineto
          232 hlineto
          -1 43 rlineto
          -90 70 -40 105 104 vvcurveto
          166 97 79 96 94 94 -76 -142 -117 -29 -112 -100 -77 vhcurveto
          -1 -43 rlineto
          232 hlineto
          3 83 -115 -5 rlineto
          60 62 42 103 92 vvcurveto
          210 -141 98 -138 -139 -143 -112 -209 vhcurveto
          endchar
        </CharString>
        <CharString name="Oslash">
          80 -59 -21 71 6 callgsubr
          52 -20 hstem
          35 88 309 81 vstem
          48 -65 rmoveto
          73 -15 46 101 rlineto
          -20 31 36 -10 42 hhcurveto
          175 1 62 176 172 vvcurveto
          113 -35 81 -51 50 vhcurveto
          49 106 -75 10 -34 -73 rlineto
          14 -29 -32 7 -31 hhcurveto
          -46 callsubr
          -95 25 -95 51 -65 hvcurveto
          169 -3 rmoveto
          -28 -26 10 20 -23 hvcurveto
          185 400 rlineto
          30 -40 14 -61 -63 vvcurveto
          -128 -57 -138 -95 vhcurveto
          -157 258 rmoveto
          155 71 91 67 26 25 -7 -12 21 vhcurveto
          -178 -387 rlineto
          -20 42 -12 54 64 vvcurveto
          endchar
        </CharString>
        <CharString name="Otilde">
          -1 callsubr
          56 -41 callsubr
          36 38 callgsubr
          89 hintmask 11010111
          -103 callsubr
          49 376 -42 callgsubr
        </CharString>
        <CharString name="P">
          -49 16 -21 584 71 hstem
          43 84 190 83 vstem
          131 212 rmoveto
          27 hlineto
          13 callgsubr
          -42 -43 -13 -18 -52 hvcurveto
          -2 -617 89 -7 rlineto
          186 428 34 callsubr
          -4 297 rlineto
          2 10 10 1 9 31 callsubr
        </CharString>
        <CharString name="Q">
          90 -49 -21 70 6 callgsubr
          hstem
          40 38 callgsubr
          89 vstem
          40 336 -38 callsubr
          34 30 7 12 26 hvcurveto
          67 -89 73 56 -75 83 rlineto
          58 67 24 107 106 vvcurveto
          -92 callsubr
          -112 -17 -75 -30 -45 vhcurveto
          -49 55 -54 -42 44 -60 rlineto
          -4 -12 -13 -2 -13 hhcurveto
          -11 callgsubr
          hvcurveto
          endchar
        </CharString>
        <CharString name="R">
          4 callgsubr
          10 callgsubr
          hintmask 11101100
          -87 callsubr
          hintmask 11110100
          -61 callgsubr
          endchar
        </CharString>
        <CharString name="Racute">
          -77 callgsubr
          13 376 -90 callsubr
        </CharString>
        <CharString name="Rcaron">
          -77 callgsubr
          35 518 -83 callsubr
        </CharString>
        <CharString name="Rcommaaccent">
          -19 -230 -5 callgsubr
          290 75 251 68 hstemhm
          47 73 -73 88 28 125 55 79 hintmask 11110111
          -87 callsubr
          hintmask 11111011
          -61 callgsubr
          113 -367 -92 callgsubr
        </CharString>
        <CharString name="S">
          -92 -12 78 516 77 -68 callgsubr
          endchar
        </CharString>
        <CharString name="Scaron">
          -92 -12 78 516 77 203 -20 -68 callgsubr
          -126 689 -83 callsubr
        </CharString>
        <CharString name="T">
          -9 21 -21 566 79 2 -20 hstemhm
          183 91 hintmask 10110000
          12 647 rmoveto
          hintmask 11010000
          2 -81 170 1 -2 -566 96 -1 -8 567 169 1 8 75 rlineto
          endchar
        </CharString>
        <CharString name="Thorn">
          -36 21 -21 478 71 110 -20 hstem
          55 89 186 83 vstem
          171 111 rmoveto
          13 callgsubr
          -15 -15 -2 -3 -16 hvcurveto
          2 115 -98 -5 6 -654 81 3 rlineto
          108 vlineto
          191 211 34 callsubr
          5 299 rlineto
          1 7 7 0 6 31 callsubr
        </CharString>
        <CharString name="U">
          56 -6 86 577 -96 callgsubr
          endchar
        </CharString>
        <CharString name="Uacute">
          56 -6 86 783 -96 callgsubr
          -261 64 -90 callsubr
        </CharString>
        <CharString name="Ucircumflex">
          56 -6 86 782 -96 callgsubr
          -156 28 -100 callgsubr
        </CharString>
        <CharString name="Udieresis">
          56 -6 86 613 26 callgsubr
          40 90 2 27 callgsubr
          -8 91 hintmask 11110100
          -98 callgsubr
          hintmask 11111000
          -172 86 -105 callgsubr
        </CharString>
        <CharString name="Ugrave">
          56 -6 86 782 -96 callgsubr
          -256 205 -73 callgsubr
        </CharString>
        <CharString name="V">
          71 16 -21 659 -20 hstem
          253 -5 rmoveto
          66 2 202 652 -94 5 -143 -513 -169 513 -95 -18 rlineto
          endchar
        </CharString>
        <CharString name="W">
          344 16 -21 664 -20 hstem
          454 501 rmoveto
          -102 9 -105 -375 -132 519 -103 -5 189 -652 88 -2 109 418 144 -416 75 -2 175 645 -98 19 -117 -524 rlineto
          endchar
        </CharString>
        <CharString name="X">
          99 3 -21 681 -20 hstem
          31 622 rmoveto
          196 -295 -187 -312 82 -33 155 266 7 -1 185 -264 85 32 -214 306 194 301 -82 41 -159 -279 rlineto
          -10 hlineto
          -164 272 rlineto
          endchar
        </CharString>
        <CharString name="Y">
          95 21 -21 670 -31 callsubr
          endchar
        </CharString>
        <CharString name="Yacute">
          95 21 -21 862 -31 callsubr
          -121 720 -90 callsubr
        </CharString>
        <CharString name="Ydieresis">
          95 21 -21 702 26 callgsubr
          154 98 -1 93 -19 98 hintmask 11010000
          -57 callsubr
          hintmask 11101000
          -25 752 -105 callgsubr
        </CharString>
        <CharString name="Z">
          35 callgsubr
          hstemhm
          hintmask 10100000
          -16 callsubr
          hintmask 01100000
          35 callsubr
          endchar
        </CharString>
        <CharString name="Zcaron">
          35 callgsubr
          208 -20 hstemhm
          hintmask 10110000
          -16 callsubr
          hintmask 01110000
          35 callsubr
          -249 763 -83 callsubr
        </CharString>
        <CharString name="a">
          -50 callgsubr
          19 callsubr
          86 hintmask 10111100
          -78 callsubr
          hintmask 01111100
          -106 callgsubr
          hintmask 10111100
          -81 callgsubr
          endchar
        </CharString>
        <CharString name="aacute">
          -102 callgsubr
          -116 411 -90 callsubr
        </CharString>
        <CharString name="acircumflex">
          -102 callgsubr
          -21 376 -100 callgsubr
        </CharString>
        <CharString name="acute">
          -270 -15 callsubr
          10 15 callsubr
          endchar
        </CharString>
        <CharString name="adieresis">
          -50 callgsubr
          45 26 callgsubr
          30 81 -25 27 callgsubr
          -58 86 hintmask 1011110100000000
          -78 callsubr
          hintmask 0111110010000000
          -106 callgsubr
          hintmask 1011110100000000
          -81 callgsubr
          -41 436 -98 callsubr
          hintmask 1011101100000000
          -36 callgsubr
        </CharString>
        <CharString name="ae">
          245 -8 69 -45 -21 208 57 -44 65 128 68 10 10 callsubr
          84 223 78 hintmask 1010101110000000
          676 -71 callsubr
          -72 -60 -35 -53 -40 vhcurveto
          hintmask 1010011110000000
          68 -11 -60 30 -65 hhcurveto
          -70 -75 -34 -60 -24 hvcurveto
          45 -51 rlineto
          hintmask 1010101110000000
          -70 callgsubr
          hintmask 1001101110000000
          -53 callgsubr
          -82 62 -56 86 46 67 15 65 42 hvcurveto
          hintmask 0110101110000000
          -48 32 54 -29 77 hhcurveto
          -6 callsubr
          hvcurveto
          -41 54 rlineto
          hintmask 1010101110000000
          -89 callsubr
          -213 -267 rmoveto
          -56 -49 -25 -49 -59 -30 39 41 vhcurveto
          hintmask 1001101110000000
          38 29 39 59 49 50 -25 -51 vhcurveto
          endchar
        </CharString>
        <CharString name="afii61289">
          -3 -16 66 619 65 hstem
          97 76 135 74 vstem
          386 162 rmoveto
          -62 -15 -48 -50 -45 hhcurveto
          -71 -23 89 79 -8 hvcurveto
          138 117 68 147 108 vvcurveto
          83 -43 61 -78 -162 -2 -230 -139 -44 1 -44 4 -41 vhcurveto
          -22 -16 -24 -16 -26 -15 29 -53 rcurveline
          18 10 17 10 16 11 5 -29 6 -27 7 -21 rrcurveto
          -71 24 51 -35 58 hhcurveto
          64 71 44 88 49 hvcurveto
          -272 183 rmoveto
          151 7 219 75 33 20 -35 -53 -75 -39 -109 -96 -98 vhcurveto
          endchar
        </CharString>
        <CharString name="agrave">
          -102 callgsubr
          -138 553 -73 callgsubr
        </CharString>
        <CharString name="ampersand">
          114 -28 77 528 82 hstemhm
          12 83 -36 90 294 79 hintmask 11011000
          630 58 rmoveto
          -43 9 -50 21 -51 30 rrcurveto
          23 43 13 48 47 vvcurveto
          43 -15 57 -23 38 vhcurveto
          -78 -40 rlineto
          25 -35 12 -43 -39 vvcurveto
          -28 -7 -26 -12 -25 vhcurveto
          -142 98 -133 142 65 vvcurveto
          74 54 40 52 34 32 -21 -28 20 vhcurveto
          72 48 rlineto
          52 -37 -47 31 -70 hhcurveto
          -111 -89 -95 -102 -30 18 -40 31 -43 hvcurveto
          hintmask 11101000
          -65 -49 -31 -73 -68 vvcurveto
          -98 71 -89 157 80 69 33 50 50 vhcurveto
          44 -28 45 -23 42 -17 rrcurveto
          -475 198 rmoveto
          37 15 44 38 32 vhcurveto
          59 -68 82 -73 87 -61 rrcurveto
          -32 -32 -44 -15 -44 hhcurveto
          -81 -80 50 86 hvcurveto
          endchar
        </CharString>
        <CharString name="approxequal">
          103 149 68 -12 68 73 68 -12 68 hstemhm
          hintmask 10100000
          116 346 rmoveto
          hintmask 10010000
          -5 callsubr
          hintmask 10010000
          16 callsubr
          hintmask 10010000
          17 callsubr
          hintmask 10100000
          66 -227 rmoveto
          hintmask 01100000
          -5 callsubr
          hintmask 01100000
          16 callsubr
          hintmask 01100000
          17 callsubr
          endchar
        </CharString>
        <CharString name="aring">
          -50 callgsubr
          40 54 92 55 hstemhm
          30 81 24 55 84 56 -33 86 hintmask 1011111110000000
          -78 callsubr
          hintmask 0111111101000000
          -106 callgsubr
          hintmask 1011111110000000
          -81 callgsubr
          -58 582 -37 callsubr
        </CharString>
        <CharString name="asciicircum">
          -45 -15 callsubr
          266 516 -100 callgsubr
        </CharString>
        <CharString name="asciitilde">
          -60 callsubr
        </CharString>
        <CharString name="asterisk">
          -14 387 -21 369 -20 hstem
          360 422 rmoveto
          39 73 -137 56 54 20 41 20 46 19 rlinecurve
          -44 68 -36 -31 -36 -27 -42 -34 rlinecurve
          7 54 4 46 7 49 -82 -3 rcurveline
          8 -47 6 -45 7 -54 -43 34 -39 27 -40 31 -37 -73 rcurveline
          46 -16 42 -18 53 -20 -54 -22 -43 -18 -45 -16 43 -70 rcurveline
          37 29 37 27 43 32 -7 -54 -5 -46 -9 -47 82 2 rcurveline
          -7 46 -5 45 -6 54 42 -33 37 -28 36 -30 rrcurveto
          endchar
        </CharString>
        <CharString name="at">
          90 -116 76 78 63 168 61 78 71 hstem
          22 84 66 84 196 76 vstem
          172 173 rmoveto
          -91 4 71 -44 73 hhcurveto
          48 50 20 38 30 hvcurveto
          7 -2 2 -48 61 5 rlineto
          5 73 5 72 47 vvcurveto
          155 -56 81 -144 -184 -122 -153 -174 -173 135 -95 141 43 44 9 18 40 vhcurveto
          -11 81 rlineto
          -22 -38 -39 -10 -37 hhcurveto
          -106 -88 83 125 147 105 93 111 63 67 -36 -97 hvcurveto
          -3 -2 rlineto
          39 -33 -46 18 -43 hhcurveto
          -81 -74 -55 -102 hvcurveto
          269 14 rmoveto
          -56 -44 -30 -48 -46 -47 30 64 35 28 39 53 51 53 -38 -44 vhcurveto
          endchar
        </CharString>
        <CharString name="atilde">
          -50 callgsubr
          63 -41 callsubr
          30 81 186 86 hintmask 1011100111000000
          -78 callsubr
          hintmask 0111100111000000
          -106 callgsubr
          hintmask 1011010111000000
          -81 callgsubr
          -194 403 -43 callgsubr
          hintmask 1011100111000000
          -93 callsubr
          hintmask 1011001011000000
          -67 callsubr
        </CharString>
        <CharString name="b">
          42 -4 74 335 71 172 78 6 -20 hstemhm
          -11 153 -90 90 242 91 hintmask 11101010
          -9 646 rmoveto
          68 4 rlineto
          hintmask 11100110
          -3 -86 -4 -190 -86 vvcurveto
          -48 callgsubr
          rlineto
          hintmask 11011010
          15 338 -164 -11 rlineto
          278 -651 -29 callgsubr
        </CharString>
        <CharString name="backslash">
          -104 3 -21 780 -20 hstem
          37 762 rmoveto
          -75 -10 355 -770 73 15 rlineto
          endchar
        </CharString>
        <CharString name="bar">
          -232 -21 989 -20 hstem
          67 75 vstem
          65 731 rmoveto
          5 -984 72 3 rlineto
          986 vlineto
          endchar
        </CharString>
        <CharString name="braceleft">
          29 callsubr
          58 78 -17 80 hintmask 11010000
          46 214 rmoveto
          55 -8 18 -32 -43 vvcurveto
          hintmask 11100000
          -79 -61 -116 -66 vvcurveto
          -62 44 -57 124 vhcurveto
          -3 77 rlineto
          -66 -21 24 36 hvcurveto
          hintmask 11010000
          64 63 105 87 vvcurveto
          36 -13 33 -49 25 vhcurveto
          49 27 13 34 36 vvcurveto
          hintmask 11100000
          88 -63 107 64 vvcurveto
          36 21 24 66 vhcurveto
          3 77 rlineto
          -125 -1 -43 -56 -62 vvcurveto
          hintmask 11010000
          -66 61 -116 -79 vvcurveto
          -43 -18 -32 -55 -8 vhcurveto
          endchar
        </CharString>
        <CharString name="braceright">
          29 callsubr
          70 80 -17 78 hintmask 11100000
          223 268 rmoveto
          -55 8 -18 32 43 vvcurveto
          hintmask 11010000
          79 61 116 66 vvcurveto
          62 -43 56 -125 1 vhcurveto
          3 -77 rlineto
          66 21 -24 -36 hvcurveto
          hintmask 11100000
          -64 -63 -107 -88 vvcurveto
          -36 13 -34 49 -27 vhcurveto
          -49 -25 -13 -33 -36 vvcurveto
          hintmask 11010000
          -87 63 -105 -64 vvcurveto
          -36 -21 -24 -66 vhcurveto
          -3 -77 rlineto
          124 44 57 62 hvcurveto
          hintmask 11100000
          66 -61 116 79 vvcurveto
          43 18 32 55 8 vhcurveto
          endchar
        </CharString>
        <CharString name="bracketleft">
          -98 19 callgsubr
          71 81 hintmask 10101000
          72 -235 rmoveto
          hintmask 01101000
          223 -12 4 77 -146 -6 -1 835 146 -6 rlineto
          hintmask 10011000
          -4 77 -223 -12 rlineto
          endchar
        </CharString>
        <CharString name="bracketright">
          -95 19 callgsubr
          65 224 -81 81 hintmask 10101000
          290 718 rmoveto
          hintmask 10010100
          -223 12 -4 -77 146 6 -1 -835 -146 6 rlineto
          hintmask 01101000
          4 -77 223 12 rlineto
          endchar
        </CharString>
        <CharString name="breve">
          -24 520 63 110 -20 hstem
          222 520 rmoveto
          85 59 50 95 28 hvcurveto
          -78 28 rlineto
          -50 -13 -27 -60 -54 hhcurveto
          -54 -27 60 50 -13 hvcurveto
          -78 -28 rlineto
          -95 28 59 -50 85 hhcurveto
          endchar
        </CharString>
        <CharString name="brokenbar">
          -232 -21 989 -20 hstem
          68 74 vstem
          70 -253 rmoveto
          72 3 rlineto
          432 -75 vlineto
          -2 549 rmoveto
          2 -429 rlineto
          75 434 hlineto
          endchar
        </CharString>
        <CharString name="bullet">
          -1 183 -21 326 -20 hstem
          244 488 rmoveto
          -117 -58 -86 -85 -78 60 -77 104 112 51 93 86 76 -47 71 -105 hvcurveto
          endchar
        </CharString>
        <CharString name="c">
          -45 -5 63 349 70 hstem
          32 80 vstem
          400 437 rmoveto
          14 callsubr
          -30 callgsubr
        </CharString>
        <CharString name="c_t">
          367 -7 75 -52 -21 412 70 169 66 hstemhm
          32 80 189 63 155 81 -50 74 hintmask 10111101
          394 431 rmoveto
          -22 31 -8 37 37 vvcurveto
          72 47 38 56 51 32 -33 -46 -33 -4 -32 20 callsubr
          hintmask 10111110
          0 -6 -121 -39 callsubr
          hintmask 01111101
          5 29 8 35 30 vvcurveto
          95 -70 45 -81 -116 -56 -82 -84 -44 5 -18 9 -19 vhcurveto
          9 -22 -17 3 -42 hhcurveto
          -111 -91 -115 -140 -30 callgsubr
        </CharString>
        <CharString name="caron">
          -153 -15 callsubr
          96 693 -83 callsubr
        </CharString>
        <CharString name="ccedilla">
          -45 36 callsubr
          48 63 -38 -21 408 70 hstemhm
          32 80 176 77 hintmask 11011110
          204 -78 callgsubr
          12 53 rlineto
          -2 hlineto
          71 12 48 36 23 28 -41 51 rcurveline
          hintmask 11101110
          -33 callgsubr
          43 64 rlineto
          14 callsubr
          -123 56 -99 129 -5 hvcurveto
          endchar
        </CharString>
        <CharString name="cedilla">
          -159 36 callsubr
          52 -20 hstem
          185 77 vstem
          101 -78 callgsubr
          12 53 rlineto
          -59 hlineto
          endchar
        </CharString>
        <CharString name="cent">
          -43 -61 -21 77 64 504 -20 hstem
          21 80 vstem
          201 -82 rmoveto
          13 77 rlineto
          98 66 46 34 28 hvcurveto
          -41 51 rlineto
          0 -55 -65 -86 -2 vhcurveto
          55 341 rlineto
          39 -10 28 -17 0 vvcurveto
          43 64 -34 17 -30 13 -34 6 rlinecurve
          14 83 -65 7 -16 -87 rlineto
          -125 -12 -78 -111 -131 vvcurveto
          -100 37 -84 83 -31 vhcurveto
          -13 -75 rlineto
          -27 305 rmoveto
          75 27 83 84 11 vhcurveto
          -57 -319 rlineto
          -33 27 -21 61 62 vvcurveto
          endchar
        </CharString>
        <CharString name="circumflex">
          -101 -15 callsubr
          215 516 -100 callgsubr
        </CharString>
        <CharString name="colon">
          -244 1 108 141 26 callsubr
          48 37 callsubr
          103 250 -72 callgsubr
          -8 -249 -84 callsubr
        </CharString>
        <CharString name="comma">
          -296 -45 callgsubr
        </CharString>
        <CharString name="commaaccent">
          -215 -229 -5 callgsubr
          hstem
          69 25 callsubr
          139 -32 -92 callgsubr
        </CharString>
        <CharString name="copyright">
          197 -12 104 482 86 hstem
          20 116 vstem
          333 660 -21 callgsubr
          128 -199 rmoveto
          0 -47 34 -63 -95 -33 -84 -75 -84 47 -81 71 86 53 52 0 vhcurveto
          41 -51 rlineto
          -34 -28 -64 -46 -98 hhcurveto
          -136 -59 101 126 139 87 116 138 55 40 -15 -25 48 hvcurveto
          endchar
        </CharString>
        <CharString name="currency">
          123 67 62 -51 -21 443 63 6 -20 hstemhm
          38 66 360 70 hintmask 01101100
          29 517 rmoveto
          15 -15 20 -20 22 -21 rrcurveto
          -32 -46 -16 -56 -55 vvcurveto
          -51 15 -50 30 -41 vhcurveto
          -21 -20 -19 -19 -14 -14 52 -52 rcurveline
          14 15 18 19 20 20 rrcurveto
          hintmask 10101100
          -27 38 48 -17 58 hhcurveto
          64 51 18 29 40 hvcurveto
          hintmask 01011100
          57 -57 52 52 -15 15 -21 19 -22 22 rlinecurve
          34 46 17 58 57 vvcurveto
          50 -15 50 -29 40 vhcurveto
          51 51 -52 52 -14 -15 -17 -18 -18 -19 rlinecurve
          hintmask 10101100
          28 -38 -49 18 -58 hhcurveto
          -66 -53 -20 -31 -41 hvcurveto
          hintmask 10011100
          -20 21 -20 20 -14 16 rrcurveto
          187 -440 rmoveto
          -107 -57 92 89 hvcurveto
          hintmask 10101100
          97 60 93 137 106 57 -93 -88 -98 -60 -92 -136 vhcurveto
          endchar
        </CharString>
        <CharString name="d">
          34 -5 79 330 71 177 72 2 -20 hstemhm
          25 85 181 155 -79 79 hintmask 11101010
          293 651 rmoveto
          75 3 -1 -233 -6 -3 rlineto
          31 -30 -40 26 -54 hhcurveto
          -140 -72 -140 -128 -108 49 -104 115 79 52 31 47 43 hvcurveto
          8 -2 9 -74 69 6 rlineto
          -1 63 -2 56 49 vvcurveto
          hintmask 11011100
          200 8 162 2 193 vhcurveto
          -166 -4 rlineto
          -54 -318 rmoveto
          89 39 -70 -73 -96 -51 -91 -86 -80 -37 62 73 90 50 105 76 hvcurveto
          endchar
        </CharString>
        <CharString name="dagger">
          20 -74 -21 453 85 210 -20 hstem
          194 88 vstem
          192 643 rmoveto
          -203 vlineto
          -29 -124 2 1 -26 hvcurveto
          19 -87 rlineto
          0 99 1 63 1 vhcurveto
          -453 vlineto
          88 3 rlineto
          377 1 33 2 40 vhcurveto
          56 -1 90 -3 16 -1 rrcurveto
          4 17 90 0 hvcurveto
          -181 hlineto
          3 50 1 106 5 54 rrcurveto
          endchar
        </CharString>
        <CharString name="daggerdbl">
          20 -83 -21 211 84 167 84 211 -20 hstem
          187 100 vstem
          292 -104 rmoveto
          -5 54 3 107 -3 50 rrcurveto
          54 126 1 0 0 -12 85 -4 hvcurveto
          -16 -1 -95 0 -56 -1 rrcurveto
          -1 34 0 32 32 vvcurveto
          23 0 23 1 23 vhcurveto
          56 -1 100 0 16 -1 rrcurveto
          4 6 86 0 hvcurveto
          -179 hlineto
          3 50 -1 107 5 54 -107 -10 rcurveline
          -203 vlineto
          -26 -121 1 1 -26 hvcurveto
          8 -86 rlineto
          0 109 1 63 1 vhcurveto
          -1 -24 0 -20 -19 vvcurveto
          -101 vlineto
          -72 -77 -1 -19 hhcurveto
          -9 -85 rlineto
          1 26 119 0 31 hhcurveto
          -203 vlineto
          endchar
        </CharString>
        <CharString name="degree">
          -103 396 65 135 64 hstem
          50 68 129 68 vstem
          192 660 rmoveto
          -95 -47 -70 -68 -64 49 -62 84 90 42 75 70 61 -38 58 -85 hvcurveto
          -13 -199 rmoveto
          -38 -23 33 34 35 24 33 50 51 4 -42 -26 -44 -24 -23 -44 hvcurveto
          endchar
        </CharString>
        <CharString name="dieresis">
          -145 533 110 hstem
          27 27 callgsubr
          vstem
          198 583 -105 callgsubr
        </CharString>
        <CharString name="divide">
          116 105 108 63 70 64 26 callsubr
          246 37 callsubr
          301 410 -72 callgsubr
          -7 -305 -72 callgsubr
          -242 169 rmoveto
          12 callgsubr
          9 callsubr
          11 callgsubr
          11 callsubr
          endchar
        </CharString>
        <CharString name="dollar">
          -53 -49 -21 62 71 558 -20 hstem
          43 75 61 65 56 80 vstem
          189 621 rmoveto
          -2 -71 rlineto
          -81 -16 -63 -57 -92 vvcurveto
          -93 72 -37 66 -25 vhcurveto
          -3 -167 -53 1 -47 20 -20 7 rlinecurve
          -16 -72 37 -15 48 -10 50 -2 rlinecurve
          -1 -62 rlineto
          59 hlineto
          1 66 rlineto
          80 14 64 49 84 vvcurveto
          92 -70 31 -68 24 vhcurveto
          4 184 34 -2 36 -9 32 -12 rlinecurve
          13 76 -39 17 -38 9 -37 2 rlinecurve
          2 61 rlineto
          -131 -227 rmoveto
          45 31 25 37 10 vhcurveto
          -3 -156 rlineto
          -38 16 -27 21 39 vvcurveto
          182 -246 rmoveto
          -42 -29 -22 -33 -9 vhcurveto
          3 137 rlineto
          34 -15 25 -17 -32 vvcurveto
          endchar
        </CharString>
        <CharString name="dotaccent">
          -25 callsubr
        </CharString>
        <CharString name="dotaccentcmb">
          -25 callsubr
        </CharString>
        <CharString name="dotlessi">
          -228 2 callgsubr
          -19 callgsubr
          endchar
        </CharString>
        <CharString name="e">
          -18 callsubr
          -101 callsubr
          endchar
        </CharString>
        <CharString name="eacute">
          -95 callsubr
          -76 144 -90 callsubr
        </CharString>
        <CharString name="ecircumflex">
          -95 callsubr
          55 109 -100 callgsubr
        </CharString>
        <CharString name="edieresis">
          -18 callsubr
          56 26 callgsubr
          32 85 7 27 callgsubr
          -53 78 hintmask 11111101
          -104 callsubr
          hintmask 11111110
          48 176 -105 callgsubr
        </CharString>
        <CharString name="egrave">
          -95 callsubr
          -54 286 -73 callgsubr
        </CharString>
        <CharString name="eight">
          -83 callgsubr
        </CharString>
        <CharString name="eight.onum">
          -83 callgsubr
        </CharString>
        <CharString name="ellipsis">
          90 -2 26 callsubr
          28 120 71 120 71 120 cntrmask 01110000
          83 -2 -72 callgsubr
          191 hmoveto
          -107 callgsubr
          191 hmoveto
          -102 callsubr
        </CharString>
        <CharString name="emdash">
          644 273 23 callgsubr
          53 271 rmoveto
          1009 5 rlineto
          hintmask 10000000
          -3 72 rlineto
          -1011 hlineto
          endchar
        </CharString>
        <CharString name="endash">
          135 273 23 callgsubr
          55 271 8 callgsubr
        </CharString>
        <CharString name="equal">
          176 177 70 -51 -21 198 70 2 24 callgsubr
          70 371 rmoveto
          12 callgsubr
          84 84 -1 -1 84 hvcurveto
          hintmask 10010000
          74 vlineto
          hintmask 10100000
          11 callgsubr
          hintmask 01010000
          11 callsubr
          -270 vmoveto
          hintmask 10100000
          2 callsubr
          hintmask 10100000
          11 callgsubr
          11 callsubr
          endchar
        </CharString>
        <CharString name="estimated">
          539 -21 21 -21 144 218 20 341 21 hstemhm
          90 151 524 152 hintmask 01111100
          917 341 rmoveto
          10 vlineto
          205 -186 167 -228 -229 -184 -167 -205 -206 184 -166 229 133 120 57 87 75 vhcurveto
          -61 hlineto
          hintmask 10111100
          -74 -65 -95 -49 -106 hhcurveto
          -99 -89 44 67 -65 hvcurveto
          -7 5 -3 8 10 vvcurveto
          202 vlineto
          4 2 1 4 vhcurveto
          518 26 rmoveto
          -3 -1 -3 -4 vhcurveto
          -513 hlineto
          -4 -2 3 3 hvcurveto
          200 vlineto
          11 3 7 8 7 vhcurveto
          66 65 89 44 98 hhcurveto
          98 89 -43 -63 64 hvcurveto
          6 -7 4 -8 -9 vvcurveto
          endchar
        </CharString>
        <CharString name="eth">
          47 -5 78 331 71 255 -20 hstem
          46 76 276 74 vstem
          411 678 rmoveto
          -42 48 -82 -61 -27 25 -26 22 -26 18 rlinecurve
          -58 -53 20 -11 27 -20 29 -26 rlinecurve
          -74 -54 44 -49 77 58 46 -48 41 -53 9 -37 rlinecurve
          -4 -2 rlineto
          21 -24 -48 19 -45 hhcurveto
          -127 -75 -130 -128 -156 94 -66 91 140 101 108 188 130 -62 113 -77 85 hvcurveto
          -76 -215 rmoveto
          99 42 -70 -78 -91 -55 -92 -104 -62 -55 45 108 92 43 86 92 hvcurveto
          endchar
        </CharString>
        <CharString name="exclam">
          -306 -2 108 579 -20 hstemhm
          19 120 -92 63 hintmask 11010000
          110 157 rmoveto
          12 398 9 130 0 vvcurveto
          -93 -17 rlineto
          0 3 -304 6 -203 vhcurveto
          27 -163 rmoveto
          hintmask 11100000
          -102 callsubr
        </CharString>
        <CharString name="exclamdown">
          -310 -264 -21 579 32 callgsubr
          22 120 -91 63 hintmask 11010000
          51 243 rmoveto
          -12 -398 -9 -130 0 vvcurveto
          93 17 rlineto
          0 -3 304 -6 203 vhcurveto
          -27 163 rmoveto
          hintmask 11100000
          -4 callsubr
        </CharString>
        <CharString name="f">
          -149 16 -21 410 81 168 80 hstem
          86 79 vstem
          -59 callsubr
          97 22 74 -15 callgsubr
        </CharString>
        <CharString name="f_b">
          361 -4 74 -54 -21 410 71 185 76 hstemhm
          86 79 223 95 237 91 hintmask 01111110
          -59 callsubr
          110 59 68 76 30 32 -11 -22 32 vhcurveto
          -3 -92 -3 -168 -80 vvcurveto
          hintmask 10111110
          -48 callgsubr
          25 334 -6 3 -71 -30 rlineto
          24 -42 -44 12 -42 hhcurveto
          -111 -94 -84 -171 hvcurveto
          -71 -47 rlineto
          585 -365 -29 callgsubr
        </CharString>
        <CharString name="f_h">
          375 16 -21 410 78 178 73 hstem
          86 79 224 95 222 83 vstem
          -59 callsubr
          124 62 54 70 31 32 -10 -19 29 vhcurveto
          3 -104 3 -194 -27 -91 callgsubr
          117 -66 51 -72 -67 -72 -44 -75 -29 vhcurveto
          -5 1 8 364 -9 2 -69 -28 rlineto
          21 -42 -41 10 -38 hhcurveto
          -113 -90 -87 -165 hvcurveto
          -71 -47 rlineto
          endchar
        </CharString>
        <CharString name="f_k">
          319 9 -21 417 81 174 75 hstem
          86 79 229 83 vstem
          479 -12 callgsubr
          -8 3 -68 -29 rlineto
          21 -38 -42 11 -40 hhcurveto
          -107 -98 -78 -175 hvcurveto
          -71 -47 -3 -30 -71 callgsubr
          128 66 49 68 31 32 -11 -18 26 vhcurveto
          2 -104 3 -192 -57 -47 callgsubr
          rlineto
          82 54 57 94 63 vvcurveto
          -3 callgsubr
        </CharString>
        <CharString name="f_t">
          263 -7 75 337 73 -73 207 42 80 hstemhm
          86 79 242 81 hintmask 11011100
          12 405 rmoveto
          -88 callsubr
          305 95 vvcurveto
          251 -3 rlineto
          0 -6 -123 -39 callsubr
          hintmask 10111100
          15 134 rlineto
          -68 hlineto
          -28 -133 rlineto
          hintmask 11011100
          -253 -1 rlineto
          97 22 79 -15 callgsubr
        </CharString>
        <CharString name="ff">
          146 16 -21 410 75 179 76 -74 -20 95 -20 hstemhm
          86 79 203 87 hintmask 11100110
          368 407 rmoveto
          -1 -70 -2 -319 -1 -23 90 12 rcurveline
          0 -2 305 95 vvcurveto
          142 -3 15 85 -154 -6 rlineto
          113 52 63 72 30 34 -11 -24 35 vhcurveto
          32 68 rlineto
          29 -46 -46 14 -43 hhcurveto
          -47 -44 -17 -33 -34 hvcurveto
          hintmask 11011110
          34 -51 -56 17 -52 hhcurveto
          -111 -94 -81 -173 -43 callsubr
          242 216 rmoveto
          -20 -39 -8 -47 -57 vvcurveto
          -211 -1 rlineto
          122 58 59 76 34 40 -10 -27 31 vhcurveto
          endchar
        </CharString>
        <CharString name="ffi">
          394 16 -21 414 73 62 193 -70 70 hstemhm
          86 79 209 85 208 109 -88 88 hintmask 11011101
          786 607 rmoveto
          78 -96 52 -95 -53 -53 -17 -37 -35 vhcurveto
          36 -49 -50 16 -47 hhcurveto
          -121 -101 -104 -149 -43 callsubr
          212 2 -1 -70 0 -321 -1 -23 rlinecurve
          85 11 rlineto
          0 -1 309 97 vvcurveto
          232 6 -80 callgsubr
          vlineto
          -317 -1 rlineto
          117 64 68 70 30 30 -12 -26 28 vhcurveto
          hintmask 11101110
          -9 -11 -5 -13 -13 vvcurveto
          -25 18 -23 35 32 34 21 42 vhcurveto
          -375 21 rmoveto
          -20 -39 -15 -46 -63 vvcurveto
          -211 hlineto
          99 67 83 85 30 32 -10 -24 32 vhcurveto
          endchar
        </CharString>
        <CharString name="ffl">
          405 16 -21 412 74 180 73 hstem
          86 79 209 87 234 86 vstem
          615 -48 callsubr
          -53 -42 -19 -32 -31 hvcurveto
          34 -52 -56 17 -51 hhcurveto
          -112 -92 -81 -171 -43 callsubr
          212 -1 -85 callsubr
          307 95 vvcurveto
          144 -1 rlineto
          -194 214 rmoveto
          -18 -41 -8 -48 -51 vvcurveto
          -217 -2 rlineto
          115 60 66 77 34 36 -13 -26 36 vhcurveto
          endchar
        </CharString>
        <CharString name="fi">
          75 16 -21 419 18 callsubr
          109 -88 88 hintmask 11011010
          498 607 rmoveto
          -26 callgsubr
          232 10 -80 callgsubr
          vlineto
          -22 callsubr
          vhcurveto
          endchar
        </CharString>
        <CharString name="five">
          -14 -10 21 callsubr
          41 76 208 89 hintmask 11101100
          39 649 -63 callsubr
        </CharString>
        <CharString name="five.onum">
          -11 -181 21 callsubr
          48 76 208 89 hintmask 11101100
          46 478 -63 callsubr
        </CharString>
        <CharString name="fj">
          75 -213 81 546 18 callsubr
          119 -98 86 hintmask 11011010
          400 419 rmoveto
          3 -87 1 -183 -68 callsubr
          38 182 173 1 hvcurveto
          2 341 -22 callsubr
          -26 callgsubr
          endchar
        </CharString>
        <CharString name="fl">
          106 16 -21 413 73 180 73 hstem
          92 79 234 86 vstem
          325 -48 callsubr
          -131 -62 -115 -137 hvcurveto
          -13 callgsubr
          144 -1 rlineto
          endchar
        </CharString>
        <CharString name="florin">
          18 -208 84 458 81 226 84 hstemhm
          143 90 -90 107 hintmask 11110000
          157 336 rmoveto
          3 hlineto
          -17 -223 rlineto
          -185 -14 -34 -52 -69 hhcurveto
          -63 -52 36 0 hvcurveto
          -23 -83 rlineto
          -26 51 44 -11 39 hhcurveto
          130 68 129 164 13 hvcurveto
          hintmask 11101000
          6 76 6 97 5 77 137 -2 rcurveline
          15 85 -145 -5 rlineto
          178 16 34 50 68 hhcurveto
          63 52 -36 0 hvcurveto
          23 83 rlineto
          26 -51 -44 11 -39 hhcurveto
          -130 -65 -129 -164 -16 hvcurveto
          -2 -21 rlineto
          -1 hlineto
          -71 -47 -3 -30 rlineto
          endchar
        </CharString>
        <CharString name="foundryicon">
          773 44 -21 250 52 196 48 hstem
          380 52 473 52 194 50 vstem
          186 157 rmoveto
          40 31 -87 85 rlineto
          262 hlineto
          -152 57 156 -98 53 hhcurveto
          48 161 98 152 59 hvcurveto
          216 -116 50 284 -50 -116 -201 hlineto
          4 20 3 20 22 vvcurveto
          108 -57 74 -96 -68 -38 -24 -44 -30 vhcurveto
          43 -31 -32 25 -70 hhcurveto
          -93 -62 -73 -109 -22 2 -20 4 -20 hvcurveto
          -248 hlineto
          88 84 -40 32 -146 -141 rlineto
          628 -227 rmoveto
          -57 8 -109 83 -47 109 rrcurveto
          180 52 -198 hlineto
          -3 16 -2 17 18 vvcurveto
          89 41 56 73 63 35 -40 -44 16 vhcurveto
          16 hlineto
          43 16 34 41 64 hhcurveto
          75 40 -57 -86 -157 -169 -138 -68 -10 hvcurveto
          endchar
        </CharString>
        <CharString name="four">
          16 1 6 callsubr
          499 -55 callgsubr
        </CharString>
        <CharString name="four.onum">
          16 -158 6 callsubr
          340 -55 callgsubr
        </CharString>
        <CharString name="foursuperior">
          -89 364 62 235 -20 hstemhm
          216 64 vstemhm
          118 426 -38 callgsubr
          hintmask 11100000
          -36 callsubr
          endchar
        </CharString>
        <CharString name="fraction">
          101 3 -21 684 -20 hstem
          451 -58 callsubr
          endchar
        </CharString>
        <CharString name="g">
          49 -214 78 171 28 callgsubr
          250 84 hintmask 11101100
          234 485 rmoveto
          -45 callsubr
          -84 -22 -123 -72 -61 -58 36 47 -32 vhcurveto
          -70 -58 rlineto
          -89 64 73 -14 75 hhcurveto
          153 34 195 125 194 -3 184 0 hvcurveto
          hintmask 11011100
          -64 6 -11 -58 -9 -3 rlineto
          hintmask 11101100
          39 -31 -48 17 -54 hhcurveto
          136 -215 -3 callsubr
          endchar
        </CharString>
        <CharString name="g_j">
          326 -213 68 -68 81 -61 -21 154 64 31 81 295 74 49 32 callgsubr
          36 84 -17 69 198 84 156 120 -95 82 hintmask 0011111101100000
          267 -214 rmoveto
          46 35 18 28 27 hvcurveto
          hintmask 0101111101010000
          -25 34 40 -20 49 hhcurveto
          180 39 154 201 -8 callsubr
          -148 -41 -69 -85 -36 -30 11 16 -27 vhcurveto
          29 65 9 82 64 7 callgsubr
          -20 callsubr
          -50 -4 -46 -11 -37 vhcurveto
          34 -42 -41 32 -54 hhcurveto
          hintmask 0011111011100000
          -75 -40 -47 -51 -58 52 -62 112 hvcurveto
          103 484 rmoveto
          -67 -52 -87 -89 vhcurveto
          hintmask 1001111101100000
          -10 callgsubr
          hvcurveto
          295 264 -72 callgsubr
          -412 -679 rmoveto
          hintmask 1001111011100000
          -55 -26 28 24 17 14 16 26 39 33 -28 -33 36 hvcurveto
          -15 -16 -22 -9 -29 hhcurveto
          endchar
        </CharString>
        <CharString name="g_y">
          539 -216 74 74 67 36 28 callgsubr
          -67 81 236 84 hintmask 11101011
          203 -1 rmoveto
          -107 -43 -48 -55 -57 41 -55 122 74 54 30 46 38 hvcurveto
          -38 60 68 -38 98 hhcurveto
          127 46 -34 callsubr
          -52 -41 -61 -74 -62 36 35 -65 vhcurveto
          21 53 10 62 62 7 callgsubr
          hintmask 11110101
          -20 callsubr
          -32 -6 -38 -15 -35 vhcurveto
          19 -44 -47 14 -55 hhcurveto
          167 271 -3 callsubr
          -161 -409 rmoveto
          hintmask 11110011
          -50 -25 17 18 18 25 18 47 37 33 -12 -17 33 hvcurveto
          -25 -25 -33 -17 -42 hhcurveto
          endchar
        </CharString>
        <CharString name="germandbls">
          133 -2 67 -49 -21 624 75 hstemhm
          88 79 65 68 102 76 22 80 hintmask 01111110
          478 538 rmoveto
          90 -63 66 -131 -114 -72 -102 -136 -10 vhcurveto
          -71 -41 1 -32 62 2 -1 -62 -2 -306 -1 -22 rlinecurve
          90 12 rlineto
          0 1 289 161 vvcurveto
          87 43 75 78 67 47 -41 -41 vhcurveto
          -96 -170 29 -147 -169 268 63 -85 vvcurveto
          hintmask 10111110
          -35 -30 -32 -37 callgsubr
          -87 callgsubr
          158 -280 -67 104 vvcurveto
          85 177 -7 1 125 vhcurveto
          endchar
        </CharString>
        <CharString name="grave">
          -268 -15 callsubr
          88 693 -73 callgsubr
        </CharString>
        <CharString name="greater">
          33 callsubr
          524 317 rmoveto
          -454 -206 34 -71 506 240 rlineto
          74 vlineto
          -506 240 -34 -71 rlineto
          endchar
        </CharString>
        <CharString name="greaterequal">
          34 callgsubr
          609 72 rmoveto
          -1 callgsubr
          -74 vlineto
          -2 callsubr
          -85 396 rmoveto
          -454 -196 34 -71 506 230 rlineto
          74 vlineto
          -506 230 -34 -71 rlineto
          endchar
        </CharString>
        <CharString name="guillemotleft">
          23 -17 callsubr
          332 -164 -22 callgsubr
          endchar
        </CharString>
        <CharString name="guillemotright">
          23 1 callgsubr
          441 257 -23 callgsubr
          -38 164 -23 callgsubr
          endchar
        </CharString>
        <CharString name="guilsinglleft">
          -162 -17 callsubr
          endchar
        </CharString>
        <CharString name="guilsinglright">
          -162 1 callgsubr
          256 257 -23 callgsubr
          endchar
        </CharString>
        <CharString name="h">
          56 16 -21 401 84 170 77 4 -20 hstemhm
          -17 170 -91 91 226 83 hintmask 11100110
          -15 647 rmoveto
          77 6 rlineto
          -64 callsubr
          hintmask 11011010
          366 vlineto
          -173 -7 rlineto
          endchar
        </CharString>
        <CharString name="hbar">
          56 16 -21 401 84 25 72 73 77 4 -20 hstemhm
          -17 177 -159 159 -95 95 219 83 hintmask 1111001010000000
          -15 647 rmoveto
          77 6 rlineto
          -21 1 -26 1 -29 vhcurveto
          -16 1 -17 0 -18 1 rrcurveto
          -11 hlineto
          -1 -78 rlineto
          hintmask 1111000110000000
          0 27 2 37 2 vhcurveto
          2 -89 1 -91 -18 -85 callgsubr
          142 vlineto
          37 71 -1 -1 17 hvcurveto
          4 -4 74 0 0 -72 -2 -53 hvcurveto
          hintmask 1110110010000000
          154 vlineto
          -173 -7 rlineto
          endchar
        </CharString>
        <CharString name="hungarumlaut">
          -72 -15 callsubr
          10 15 callsubr
          97 -142 -90 callsubr
        </CharString>
        <CharString name="hyphen">
          -158 -50 callsubr
        </CharString>
        <CharString name="i">
          1 callsubr
          51 32 callgsubr
          68 120 -107 88 hintmask 11101000
          -76 callsubr
          103 51 rmoveto
          hintmask 11110000
          -102 callsubr
        </CharString>
        <CharString name="iacute">
          -246 17 -21 419 65 213 -20 hstemhm
          21 146 -85 85 hintmask 11110000
          59 15 callsubr
          -139 -278 rmoveto
          hintmask 11101000
          61 hlineto
          3 -144 6 -138 -137 vvcurveto
          75 4 3 479 rlineto
          hintmask 11110000
          -148 3 rlineto
          endchar
        </CharString>
        <CharString name="icircumflex">
          1 callsubr
          210 -20 -19 callgsubr
          160 33 -100 callgsubr
        </CharString>
        <CharString name="idieresis">
          1 callsubr
          50 26 callgsubr
          -16 98 -1 88 -14 98 hintmask 11110100
          155 583 -107 callsubr
          33 -166 rmoveto
          hintmask 11101000
          -81 callsubr
          endchar
        </CharString>
        <CharString name="igrave">
          1 callsubr
          210 -20 hstem
          20 callgsubr
          vstem
          52 693 -72 callsubr
          -136 -134 rmoveto
          -81 callsubr
          endchar
        </CharString>
        <CharString name="ij">
          33 -213 81 550 65 51 32 callgsubr
          18 151 -101 120 -107 88 148 24 callsubr
          hintmask 11100110
          -76 callsubr
          103 51 rmoveto
          hintmask 11101001
          -107 callgsubr
          153 -123 -79 callsubr
          91 56 rmoveto
          hintmask 11110010
          -102 callsubr
        </CharString>
        <CharString name="infinity">
          364 127 70 178 70 hstem
          70 78 542 72 vstem
          617 127 rmoveto
          96 49 81 81 78 -47 78 -98 -91 -53 -54 -60 -54 hvcurveto
          58 -55 -53 56 -96 hhcurveto
          -98 -47 -78 -78 -81 49 -81 96 113 56 79 34 35 hvcurveto
          -34 34 54 -79 110 hhcurveto
          -241 159 rmoveto
          -49 -49 -40 -40 -42 hhcurveto
          -65 -32 43 44 45 33 46 64 42 40 -40 -49 49 hvcurveto
          85 hmoveto
          24 27 52 65 53 hhcurveto
          64 33 -46 -45 -44 -32 -43 -65 -53 -52 65 24 -27 hvcurveto
          endchar
        </CharString>
        <CharString name="integral">
          -136 -262 78 838 78 hstemhm
          110 82 -82 90 hintmask 11100000
          185 526 rmoveto
          18 vlineto
          81 19 29 28 19 24 -13 -19 29 vhcurveto
          34 82 rlineto
          19 -41 -35 9 -30 hhcurveto
          -86 -43 -77 -147 hvcurveto
          -25 vlineto
          15 -539 rlineto
          -18 vlineto
          -81 -19 -29 -28 -19 -24 13 19 -29 vhcurveto
          -34 -82 rlineto
          -19 41 35 -9 30 hhcurveto
          hintmask 11010000
          86 43 77 147 hvcurveto
          25 vlineto
          endchar
        </CharString>
        <CharString name="itilde">
          -228 2 callgsubr
          51 -41 callsubr
          20 callgsubr
          hintmask 11010101
          -76 callsubr
          -13 50 -43 callgsubr
          hintmask 11100110
          -93 callsubr
          hintmask 11001010
          -67 callsubr
        </CharString>
        <CharString name="j">
          33 callgsubr
          55 32 callgsubr
          93 24 callsubr
          hintmask 11101000
          52 411 -79 callsubr
          91 56 rmoveto
          hintmask 11110000
          -102 callsubr
        </CharString>
        <CharString name="j_j">
          86 -213 78 -60 -21 156 64 407 68 55 32 callgsubr
          -153 66 180 24 callsubr
          170 24 callsubr
          hintmask 0111111010000000
          -11 -216 rmoveto
          56 42 18 31 31 hvcurveto
          hintmask 1011110101000000
          -26 38 46 -20 56 hhcurveto
          180 39 182 173 -8 callsubr
          -129 -1 -39 -91 -85 hhcurveto
          -45 -35 13 17 -30 hvcurveto
          32 68 8 91 88 vvcurveto
          -12 callsubr
          vhcurveto
          -141 -2 -5 -67 rlineto
          -19 callsubr
          -1 -55 -5 -50 -15 -39 rrcurveto
          33 -40 -39 30 -59 hhcurveto
          -82 -30 -59 -43 hvcurveto
          hintmask 0111111010000000
          -74 77 -44 65 vhcurveto
          436 750 -72 callgsubr
          -277 hmoveto
          -107 callgsubr
          -163 -679 rmoveto
          -46 -26 27 24 18 15 16 32 31 30 -27 -32 37 hvcurveto
          -16 -19 -24 -10 -30 hhcurveto
          endchar
        </CharString>
        <CharString name="j_y">
          299 -216 74 74 67 412 69 54 26 callsubr
          -19 -213 rmoveto
          73 50 31 48 33 hvcurveto
          -39 72 77 -43 79 hhcurveto
          127 49 -34 callsubr
          -55 -41 -61 -69 -70 39 37 -71 vhcurveto
          22 61 7 74 73 vvcurveto
          -12 callsubr
          vhcurveto
          -141 hlineto
          -5 -69 rlineto
          -19 callsubr
          -1 -44 -5 -40 -10 -33 rrcurveto
          18 -42 -42 13 -42 -209 3 -212 211 hhcurveto
          167 747 -72 callgsubr
          -171 -672 rmoveto
          -99 5 70 86 hhcurveto
          30 33 -12 -17 36 hvcurveto
          -26 -22 -31 -15 -38 hhcurveto
          endchar
        </CharString>
        <CharString name="jcircumflex">
          33 callgsubr
          214 -20 hstem
          114 86 vstem
          52 411 -79 callsubr
          141 38 -100 callgsubr
        </CharString>
        <CharString name="k">
          0 9 -21 741 -20 hstem
          75 83 -66 callgsubr
          endchar
        </CharString>
        <CharString name="kcommaaccent">
          0 -230 -5 callgsubr
          762 -20 hstem
          75 83 12 125 -66 callgsubr
          80 -311 -92 callgsubr
        </CharString>
        <CharString name="kgreenlandic">
          0 9 -21 417 71 8 -20 hstemhm
          3 155 -82 82 hintmask 11010000
          164 481 rmoveto
          -163 -10 4 -67 64 3 rlineto
          hintmask 11001000
          2 -96 2 -145 3 -171 81 6 rcurveline
          -51 callgsubr
          rlineto
          82 54 57 92 65 vvcurveto
          hintmask 10110000
          -3 callgsubr
        </CharString>
        <CharString name="l">
          -233 16 -21 734 -20 hstem
          81 81 -26 callsubr
          endchar
        </CharString>
        <CharString name="ldot">
          -64 16 -21 285 108 341 -20 hstem
          81 81 58 120 -26 callsubr
          271 -441 -84 callsubr
        </CharString>
        <CharString name="less">
          33 callsubr
          610 523 rmoveto
          -34 71 -506 -240 rlineto
          -74 vlineto
          506 -240 34 71 -454 206 rlineto
          endchar
        </CharString>
        <CharString name="lessequal">
          34 callgsubr
          71 -14 callsubr
          539 518 rmoveto
          -34 71 -506 -230 rlineto
          -74 vlineto
          506 -230 34 71 -454 196 rlineto
          endchar
        </CharString>
        <CharString name="logicalnot">
          139 129 -21 211 73 hstem
          487 70 vstem
          50 318 rmoveto
          145 2 146 1 146 -2 1 -71 -2 -70 -3 -70 rrcurveto
          74 hlineto
          -4 95 0 94 3 95 -216 -3 -145 0 -145 3 rrcurveto
          endchar
        </CharString>
        <CharString name="lozenge">
          76 -29 -21 762 -20 hstem
          228 -50 rmoveto
          81 8 185 373 -178 381 -81 -8 -185 -373 rlineto
          84 7 rmoveto
          139 289 136 -303 -138 -289 rlineto
          endchar
        </CharString>
        <CharString name="lslash">
          -213 16 -21 734 -20 hstemhm
          15 157 -81 81 hintmask 11100000
          11 271 rmoveto
          hintmask 11010000
          80 60 rlineto
          -336 vlineto
          80 6 2 275 rlineto
          17 0 40 1 48 vhcurveto
          86 65 -3 66 -81 -59 rlineto
          2 128 4 148 0 vvcurveto
          -168 -8 3 -74 69 10 1 -62 2 -102 1 -90 rlinecurve
          -84 -61 rlineto
          endchar
        </CharString>
        <CharString name="m">
          333 13 -21 411 78 hstem
          371 83 209 84 vstem
          667 276 rmoveto
          -11 callsubr
          vhcurveto
          -13 callsubr
          100 vlineto
          100 -32 67 -67 -98 -61 -60 -50 -40 vhcurveto
          -5 2 rlineto
          63 -15 -27 45 -61 hhcurveto
          -93 -90 -106 0 hvcurveto
          -4 hlineto
          -23 99 -70 -6 rlineto
          0 6 -130 -41 vvcurveto
          -57 -2 -6 callgsubr
          -4 60 39 vvcurveto
          51 0 58 11 42 vhcurveto
          92 24 78 60 50 hhcurveto
          49 9 -101 -105 hvcurveto
          -87 -4 -88 -27 vvcurveto
          85 6 rlineto
          0 2 138 77 vvcurveto
          74 88 105 72 47 6 -67 -52 vhcurveto
          endchar
        </CharString>
        <CharString name="macron">
          -153 576 70 -52 -21 75 -20 hstemhm
          hintmask 01100000
          42 648 rmoveto
          -12 -74 -24 callgsubr
          75 -27 callsubr
        </CharString>
        <CharString name="minus">
          135 276 70 -51 -21 74 -20 hstemhm
          hintmask 01100000
          52 274 rmoveto
          hintmask 10000000
          2 callsubr
          hintmask 10000000
          11 callgsubr
          hintmask 01100000
          11 callsubr
          endchar
        </CharString>
        <CharString name="mu">
          34 -229 -21 248 80 403 -20 hstemhm
          42 76 vstemhm
          42 164 rmoveto
          -95 3 -225 5 -94 vhcurveto
          100 20 -24 89 -4 64 -4 111 rlinecurve
          -26 23 27 -10 31 hhcurveto
          53 59 46 48 41 hvcurveto
          6 -2 16 -98 80 5 rlineto
          -94 callgsubr
          hvcurveto
          hintmask 11110000
          94 2 94 2 96 vhcurveto
          -28 callsubr
          -63 -62 vvcurveto
          endchar
        </CharString>
        <CharString name="multiply">
          80 134 -21 408 -20 hstem
          122 113 rmoveto
          50 51 51 53 51 51 50 -51 53 -53 49 -51 52 52 rcurveline
          -51 49 -53 53 -51 50 51 51 52 50 52 51 -52 52 rcurveline
          -50 -53 -51 -51 -51 -51 -52 52 -49 50 -51 53 -52 -52 rcurveline
          53 -52 50 -48 52 -52 -51 -51 -52 -52 -52 -49 rrcurveto
          endchar
        </CharString>
        <CharString name="n">
          23 callsubr
          -70 callsubr
          endchar
        </CharString>
        <CharString name="nacute">
          23 callsubr
          212 -20 -70 callsubr
          42 83 -90 callsubr
        </CharString>
        <CharString name="nbspace">
          -215 endchar
        </CharString>
        <CharString name="nine">
          35 13 3 callgsubr
          -8 -63 callgsubr
        </CharString>
        <CharString name="nine.onum">
          35 -163 3 callgsubr
          -184 -63 callgsubr
        </CharString>
        <CharString name="notequal">
          176 4 -21 194 72 122 72 179 -20 hstem
          77 175 rmoveto
          43 1 42 0 43 1 -98 -159 rcurveline
          63 -35 122 194 96 1 96 -2 97 -1 rlinecurve
          74 vlineto
          -2 -82 -82 0 -82 hhcurveto
          80 126 55 -1 55 0 56 -1 rlinecurve
          74 vlineto
          -1 -41 -41 -1 -40 hhcurveto
          90 143 -68 36 -111 -179 -98 -1 -97 1 -98 2 rlinecurve
          -74 vlineto
          1 83 84 1 83 hhcurveto
          -78 -126 rlineto
          -58 -57 1 1 -57 hvcurveto
          endchar
        </CharString>
        <CharString name="ntilde">
          23 callsubr
          83 -41 callsubr
          363 80 hintmask 11010110
          143 563 -43 callgsubr
          hintmask 11100110
          -93 callsubr
          hintmask 11001010
          -73 callsubr
          -28 -128 -90 callgsubr
          endchar
        </CharString>
        <CharString name="numbersign">
          88 18 -21 194 73 123 73 192 -20 hstem
          71 387 rmoveto
          92 1 -27 -125 rlineto
          -36 -36 1 1 -35 hvcurveto
          -74 vlineto
          91 1 -42 -195 72 3 43 193 rlineto
          89 hlineto
          -42 -193 72 3 42 190 110 -2 rlineto
          74 vlineto
          -94 -2 28 126 rlineto
          -1 36 36 -1 36 hhcurveto
          74 vlineto
          -92 -2 44 193 -77 -5 -41 -188 rlineto
          -87 hlineto
          43 189 -77 -5 -40 -184 rlineto
          -36 -36 1 1 -36 hvcurveto
          254 -72 rmoveto
          -28 -126 rlineto
          -88 hlineto
          29 126 rlineto
          endchar
        </CharString>
        <CharString name="o">
          -8 callgsubr
          -96 callsubr
          endchar
        </CharString>
        <CharString name="oacute">
          -91 callsubr
          -13 486 -90 callsubr
        </CharString>
        <CharString name="ocircumflex">
          -91 callsubr
          76 451 -100 callgsubr
        </CharString>
        <CharString name="odieresis">
          -8 callgsubr
          45 26 callgsubr
          33 79 -5 27 callgsubr
          -30 85 hintmask 11110010
          -105 callsubr
          hintmask 11101100
          55 508 -105 callgsubr
        </CharString>
        <CharString name="oe">
          297 -7 68 -45 -21 208 57 148 69 1 -20 hstemhm
          33 79 234 87 223 78 hintmask 10110111
          728 -71 callsubr
          -73 -59 -35 -53 -41 vhcurveto
          hintmask 10101111
          57 -28 -52 32 -75 hhcurveto
          -62 callgsubr
          65 55 30 53 37 hvcurveto
          hintmask 01110111
          -50 32 55 -31 79 hhcurveto
          -6 callsubr
          hvcurveto
          -41 54 rlineto
          hintmask 10110111
          -41 callgsubr
          -210 -137 -82 callsubr
          340 342 -75 callsubr
          endchar
        </CharString>
        <CharString name="ogonek">
          -156 -234 51 197 -20 hstem
          50 76 vstem
          241 -159 rmoveto
          -13 -12 -26 -11 -24 hhcurveto
          -28 -25 26 35 47 50 34 58 41 hvcurveto
          -66 14 rlineto
          -62 -28 -56 -63 -60 vvcurveto
          -73 65 -24 68 28 28 6 9 23 vhcurveto
          endchar
        </CharString>
        <CharString name="ograve">
          -91 callsubr
          -60 628 -73 callgsubr
        </CharString>
        <CharString name="one">
          -181 16 -21 656 -20 hstem
          126 89 vstem
          45 469 rmoveto
          80 60 rlineto
          1 -32 0 -13 -24 vvcurveto
          -48 0 -34 -1 -62 vhcurveto
          -5 -321 99 6 -7 248 rlineto
          -1 29 0 96 95 vvcurveto
          182 22 callgsubr
        </CharString>
        <CharString name="one.onum">
          -181 18 -21 497 -20 hstem
          126 89 vstem
          45 312 rmoveto
          80 60 rlineto
          1 -23 0 -9 -17 vvcurveto
          -34 0 -24 -1 -43 vhcurveto
          -5 -225 99 6 -7 186 rlineto
          -1 22 0 73 72 vvcurveto
          138 22 callgsubr
        </CharString>
        <CharString name="onehalf">
          312 0 69 -66 -21 345 67 272 -20 hstemhm
          142 75 400 73 hintmask 01111100
          517 -58 callsubr
          -33 -565 -34 callgsubr
          rlineto
          hintmask 10111100
          229 -1 -1 73 rlineto
          -604 438 -67 callgsubr
        </CharString>
        <CharString name="onequarter">
          312 3 -21 116 62 506 -20 hstemhm
          153 75 355 64 vstemhm
          528 -58 callsubr
          hintmask 11111000
          -44 callgsubr
          -483 350 -67 callgsubr
        </CharString>
        <CharString name="onesuperior">
          -216 287 -21 385 -20 hstem
          124 75 vstem
          73 511 -67 callgsubr
        </CharString>
        <CharString name="ordfeminine">
          -155 364 46 84 46 62 59 hstem
          40 67 95 71 vstem
          40 448 rmoveto
          -50 38 -34 52 33 34 17 15 11 vhcurveto
          1 -1 3 -27 rlineto
          61 180 hlineto
          78 -61 35 -59 -38 -40 -15 -29 -28 vhcurveto
          31 -48 rlineto
          22 19 25 11 22 hhcurveto
          31 27 -23 -47 hvcurveto
          -17 vlineto
          17 -19 -23 8 -24 hhcurveto
          -49 -47 -33 -59 hvcurveto
          162 5 rmoveto
          -29 -2 -23 -14 -25 hhcurveto
          -29 -16 21 21 21 16 21 29 24 25 -13 -28 1 hvcurveto
          endchar
        </CharString>
        <CharString name="ordmasculine">
          -124 364 55 186 56 hstem
          50 65 111 68 vstem
          294 525 rmoveto
          85 -36 51 -75 -89 -44 -87 -69 -83 38 -58 80 74 52 63 98 vhcurveto
          -127 -106 rmoveto
          -34 -18 46 46 50 18 44 45 44 4 -60 -34 -59 -22 -33 -37 hvcurveto
          endchar
        </CharString>
        <CharString name="oslash">
          -19 -29 -21 43 72 343 70 46 -20 hstem
          31 79 234 85 vstem
          26 -39 rmoveto
          68 -11 37 63 rlineto
          -13 25 31 -7 36 hhcurveto
          121 85 103 160 76 -18 59 -36 38 hvcurveto
          52 88 -70 7 -35 -59 rlineto
          8 -21 -25 5 -28 hhcurveto
          -145 -72 -142 -113 -70 16 -58 33 -41 hvcurveto
          141 11 rmoveto
          -19 -17 5 11 -14 hvcurveto
          156 266 rlineto
          14 -35 3 -44 -32 vvcurveto
          -111 -47 -60 -76 vhcurveto
          -111 171 rmoveto
          90 40 82 91 16 14 -4 -6 12 vhcurveto
          -154 -262 rlineto
          -13 29 -6 35 36 vvcurveto
          endchar
        </CharString>
        <CharString name="otilde">
          -8 callgsubr
          66 -41 callsubr
          33 79 234 85 hintmask 11010111
          -105 callsubr
          -95 478 -42 callgsubr
        </CharString>
        <CharString name="p">
          20 30 callgsubr
          hstem
          51 73 245 87 vstem
          290 17 callgsubr
          -14 74 -64 -12 rlineto
          -38 6 -134 -103 vvcurveto
          -81 -8 -55 callsubr
        </CharString>
        <CharString name="paragraph">
          160 16 -21 584 75 hstemhm
          243 83 67 83 -83 135 hintmask 11110000
          243 -5 rmoveto
          82 7 2 577 21 1 21 0 21 -1 rlinecurve
          6 -579 76 3 9 573 rlineto
          16 16 -1 -1 16 hvcurveto
          hintmask 11101000
          -1 80 rlineto
          -4 -99 -83 -3 -93 hhcurveto
          -144 -77 -106 -102 -95 67 -92 144 hvcurveto
          endchar
        </CharString>
        <CharString name="parenleft">
          -145 -103 -21 892 -20 hstem
          48 79 vstem
          216 768 rmoveto
          -126 -157 -42 -176 -132 vvcurveto
          -263 166 -164 0 vhcurveto
          59 60 rlineto
          -109 124 -37 127 116 vvcurveto
          233 148 183 0 vhcurveto
          endchar
        </CharString>
        <CharString name="parenright">
          -110 -108 -21 897 -20 hstem
          195 87 vstem
          116 -129 rmoveto
          119 132 47 158 150 vvcurveto
          190 -75 176 -97 91 vhcurveto
          0 -52 -45 -2 -4 vhcurveto
          99 -123 40 -146 -135 vvcurveto
          -169 -62 -151 -81 -68 vhcurveto
          endchar
        </CharString>
        <CharString name="partialdiff">
          35 -4 64 311 79 201 79 hstemhm
          45 84 241 94 -81 81 hintmask 11110100
          136 585 rmoveto
          39 22 46 27 45 hhcurveto
          108 26 -145 -98 -11 0 -11 -1 -10 hvcurveto
          51 -44 -53 23 -51 hhcurveto
          -99 -90 -86 -133 -119 57 -116 146 153 63 209 192 181 -88 152 -128 -72 -59 -32 -55 -51 hvcurveto
          172 -583 rmoveto
          -71 -38 82 80 76 34 73 74 hvcurveto
          hintmask 11111000
          82 51 -45 -111 -66 -42 -89 -90 hvcurveto
          endchar
        </CharString>
        <CharString name="percent">
          273 3 -21 35 68 144 68 55 67 145 18 callgsubr
          139 70 vstem
          533 -58 callsubr
          -40 -333 -32 callgsubr
          71 74 64 -40 71 -90 hvcurveto
          -12 -212 rmoveto
          -40 -27 36 36 37 26 35 45 48 20 -32 -38 -44 -27 -30 -45 hvcurveto
          -348 547 -47 callsubr
          -10 -213 rmoveto
          -40 -29 37 36 37 26 35 44 40 27 -24 -48 -47 -22 -26 -46 hvcurveto
          endchar
        </CharString>
        <CharString name="period">
          -299 -2 26 callsubr
          24 37 callsubr
          79 -2 -84 callsubr
        </CharString>
        <CharString name="periodcentered">
          -299 215 26 callsubr
          24 37 callsubr
          79 215 -84 callsubr
        </CharString>
        <CharString name="perthousand">
          589 3 -21 35 69 143 68 55 69 143 18 callgsubr
          137 72 35 72 137 72 vstem
          533 -58 callsubr
          -40 -333 -69 callsubr
          -346 546 -69 callsubr
          690 -124 -69 callsubr
          endchar
        </CharString>
        <CharString name="pi">
          68 2 -21 437 80 hstem
          122 81 151 70 -70 154 vstem
          41 368 rmoveto
          19 15 39 20 23 4 -4 -163 -7 -137 -53 -100 78 -26 rcurveline
          54 107 12 162 1 168 rrcurveto
          151 hlineto
          -2 -149 -2 -141 26 -142 88 26 rcurveline
          -25 120 -14 136 -1 149 85 -6 rcurveline
          -2 87 rlineto
          -3 -94 -88 -2 -93 hhcurveto
          -94 -79 -5 -73 -61 hvcurveto
          endchar
        </CharString>
        <CharString name="plus">
          136 86 -21 215 28 callsubr
          50 280 -42 callsubr
          -86 1 -65 -66 31 callgsubr
        </CharString>
        <CharString name="plusminus">
          135 -2 74 287 28 callsubr
          52 -14 callsubr
          -2 287 -42 callsubr
          -74 1 -70 -73 31 callgsubr
        </CharString>
        <CharString name="product">
          57 15 -21 574 82 2 -20 hstemhm
          60 92 235 87 hintmask 10111000
          49 652 rmoveto
          23 -658 rlineto
          80 hlineto
          hintmask 11011000
          574 233 vlineto
          5 -567 30 callsubr
        </CharString>
        <CharString name="q">
          64 -202 -21 218 15 callgsubr
          -83 95 -95 142 hintmask 11101001
          7 callsubr
          145 11 4 77 rlineto
          hintmask 11101100
          -61 -5 rlineto
          hintmask 11011010
          0 callsubr
          hintmask 11101001
          -40 callsubr
        </CharString>
        <CharString name="q_j">
          341 -215 78 132 82 324 74 59 32 callgsubr
          42 92 242 83 -83 95 154 24 callsubr
          hintmask 1111110010000000
          584 411 rmoveto
          -19 callsubr
          -117 -1 -31 -105 -103 hhcurveto
          -17 -18 3 6 -21 hvcurveto
          hintmask 1111101010000000
          6 203 0 205 -7 callsubr
          -27 callgsubr
          4 callsubr
          -262 rlineto
          -18 51 44 -9 39 hhcurveto
          167 60 157 200 -28 callgsubr
          rlineto
          -330 -77 -23 callsubr
          421 37 callgsubr
          hintmask 1111110100000000
          -102 callsubr
        </CharString>
        <CharString name="q_y">
          554 -228 74 -55 55 -55 72 132 15 callgsubr
          hintmask 01011011
          7 callsubr
          59 7 rlineto
          3 22 22 4 38 hhcurveto
          hintmask 10011011
          51 20 -19 55 hhcurveto
          127 31 84 -54 callgsubr
          15 -39 18 -41 -40 vvcurveto
          -57 -37 -53 -61 vhcurveto
          hintmask 00110111
          -71 -9 17 -62 hhcurveto
          -14 -18 -1 -2 -21 hvcurveto
          0 callsubr
          hintmask 10011011
          -40 callsubr
        </CharString>
        <CharString name="question">
          -107 -1 108 53 211 249 74 hstemhm
          85 120 -93 67 94 88 hintmask 11101100
          67 580 rmoveto
          27 22 33 13 34 hhcurveto
          58 59 -38 -64 -71 -60 -73 -100 -3 hvcurveto
          -2 -209 65 -4 6 158 rlineto
          81 18 98 57 122 vvcurveto
          108 -94 73 -99 -48 -56 -17 -37 -34 vhcurveto
          110 -641 rmoveto
          hintmask 11110100
          -102 callsubr
        </CharString>
        <CharString name="questiondown">
          -127 -248 73 249 211 53 32 callgsubr
          0 88 68 120 -94 67 hintmask 11110100
          294 -135 rmoveto
          -27 -22 -33 -13 -34 hhcurveto
          -58 -59 38 64 71 60 73 100 3 hvcurveto
          2 209 -65 4 -6 -158 rlineto
          -81 -18 -98 -57 -122 vvcurveto
          -108 103 -72 99 48 47 16 37 34 vhcurveto
          -110 641 rmoveto
          hintmask 11111000
          -4 callsubr
        </CharString>
        <CharString name="quotedbl">
          -40 524 -21 241 -20 hstem
          68 741 rmoveto
          4 -53 7 -107 6 -78 53 5 rcurveline
          14 63 17 101 6 72 rrcurveto
          80 -3 rmoveto
          6 -49 7 -116 4 -73 53 5 rcurveline
          13 63 18 108 6 65 rrcurveto
          endchar
        </CharString>
        <CharString name="quotedblbase">
          -134 -90 13 callsubr
          107 -65 callgsubr
        </CharString>
        <CharString name="quotedblleft">
          -134 533 104 114 -20 hstem
          22 125 29 25 callsubr
          231 533 rmoveto
          -59 callgsubr
          -154 hmoveto
          -59 callgsubr
          endchar
        </CharString>
        <CharString name="quotedblright">
          -134 554 13 callsubr
          751 -65 callgsubr
        </CharString>
        <CharString name="quoteleft">
          -303 533 104 114 -20 hstem
          15 25 callsubr
          70 533 rmoveto
          -59 callgsubr
          endchar
        </CharString>
        <CharString name="quoteright">
          -303 554 -5 callgsubr
          hstem
          25 25 callsubr
          95 751 -92 callgsubr
        </CharString>
        <CharString name="quotesinglbase">
          -300 -45 callgsubr
        </CharString>
        <CharString name="quotesingle">
          -300 524 -21 237 -20 hstem
          40 735 rmoveto
          4 -49 9 -104 4 -79 50 5 rcurveline
          16 72 13 86 8 74 rrcurveto
          endchar
        </CharString>
        <CharString name="r">
          -97 17 -21 408 79 hstem
          66 86 vstem
          -86 callsubr
          endchar
        </CharString>
        <CharString name="radical">
          189 -199 -21 956 -20 hstem
          190 302 rmoveto
          -140 -52 20 -63 61 28 61 -160 38 -128 58 -147 rlinecurve
          85 8 56 156 127 630 51 148 rlinecurve
          -86 14 -188 -851 rlineto
          endchar
        </CharString>
        <CharString name="rcaron">
          -97 17 -21 408 79 210 -20 hstem
          66 86 vstem
          -86 callsubr
          -9 216 -83 callsubr
        </CharString>
        <CharString name="rcommaaccent">
          -97 -230 -5 callgsubr
          437 79 hstemhm
          66 86 -86 131 hintmask 11110000
          -86 callsubr
          7 -510 rmoveto
          -99 callsubr
          hintmask 11101000
          -80 callsubr
          endchar
        </CharString>
        <CharString name="registered">
          258 10 -21 358 172 58 84 hstem
          50 194 73 156 79 124 vstem
          363 661 -21 callgsubr
          -84 vmoveto
          136 57 -78 -59 -4 hvcurveto
          -4 -58 -32 -48 -53 -25 103 -192 rcurveline
          -88 -30 -90 194 -59 -1 5 -175 -86 -10 -8 471 rlineto
          5 44 41 6 38 hhcurveto
          -46 -229 rmoveto
          -1 6 22 0 8 hhcurveto
          48 72 26 60 52 -47 34 -51 -14 -28 -3 -6 -16 hvcurveto
          endchar
        </CharString>
        <CharString name="ring">
          -180 613 54 92 55 hstem
          42 55 84 56 vstem
          147 814 -37 callsubr
        </CharString>
        <CharString name="s">
          -49 -2 67 345 71 -61 callsubr
          58 -81 vvcurveto
          -34 -30 -33 -47 -62 -69 30 38 -36 vhcurveto
          endchar
        </CharString>
        <CharString name="s_b">
          461 -2 67 -48 -21 414 66 175 81 hstemhm
          41 71 133 74 -8 80 80 90 242 91 hintmask 1011101110000000
          67 37 callgsubr
          -94 callsubr
          63 -24 32 callsubr
          44 62 rlineto
          hintmask 0111110110000000
          -49 49 -23 45 38 vvcurveto
          59 56 39 101 vhcurveto
          -3 -88 -2 -190 -85 vvcurveto
          -48 callgsubr
          15 338 rlineto
          -224 -100 -77 -98 -27 7 -27 14 -29 hvcurveto
          5 -21 -20 2 -20 hhcurveto
          -90 -74 -48 -110 hvcurveto
          hintmask 1011101110000000
          -58 callgsubr
          616 -63 -29 callgsubr
        </CharString>
        <CharString name="s_h">
          475 -2 67 -49 -21 401 84 -70 70 173 78 hstemhm
          41 71 135 144 -80 80 90 91 226 83 hintmask 0110111011000000
          387 422 rmoveto
          75 -85 -48 156 227 hhcurveto
          -64 callsubr
          366 vlineto
          -281 -4 -44 -109 -62 vvcurveto
          -27 8 -27 12 -26 vhcurveto
          3 -19 -19 2 -20 -9 callgsubr
          hintmask 1001110111000000
          -58 callgsubr
          -93 callgsubr
          endchar
        </CharString>
        <CharString name="s_k">
          419 -2 67 -56 -21 422 71 173 75 hstemhm
          41 71 141 70 -12 80 102 83 hintmask 10111101
          579 -12 callgsubr
          -21 hlineto
          -142 -171 -31 -155 -23 4 -22 8 -21 hvcurveto
          3 -18 -19 1 -19 -9 callgsubr
          hintmask 10111011
          -58 callgsubr
          -82 callgsubr
          hintmask 01111101
          -37 24 -27 48 47 vvcurveto
          58 43 55 122 vhcurveto
          2 -96 3 -218 -62 vvcurveto
          -283 vlineto
          83 6 rlineto
          207 vlineto
          20 2 18 4 17 6 140 -232 rcurveline
          96 20 -160 249 rlineto
          78 52 61 83 76 vvcurveto
          -3 callgsubr
        </CharString>
        <CharString name="s_l">
          186 -2 67 -49 -21 415 71 176 72 hstemhm
          41 71 136 77 -14 80 109 80 hintmask 10111011
          -84 callgsubr
          hintmask 01111101
          -38 38 -24 47 41 vvcurveto
          58 48 49 122 2 vhcurveto
          2 -95 3 -220 -64 vvcurveto
          -283 vlineto
          80 6 rlineto
          275 vlineto
          112 11 341 0 vhcurveto
          -22 hlineto
          -270 -51 -107 -66 -27 8 -27 12 -26 hvcurveto
          4 -19 -20 1 -20 -9 callgsubr
          hintmask 10111011
          -58 callgsubr
          endchar
        </CharString>
        <CharString name="s_p">
          439 -208 -21 227 67 -67 79 -56 -21 410 64 224 -20 hstemhm
          41 75 174 74 -53 80 87 71 239 87 hintmask 1100111011100000
          67 37 callgsubr
          -87 callgsubr
          159 -275 -64 106 vvcurveto
          41 34 28 48 56 66 -28 32 callsubr
          37 67 rlineto
          hintmask 1001111101100000
          -18 20 -5 16 16 vvcurveto
          48 60 6 54 41 vhcurveto
          -3 -111 -5 -198 -78 vvcurveto
          -81 -8 -60 callgsubr
          -62 -48 -34 -26 -32 hvcurveto
          -9 2 3 107 6 112 1 63 rlinecurve
          -78 hlineto
          -9 -106 -191 -2 -111 vvcurveto
          -7 vlineto
          7 -26 -28 3 -29 hhcurveto
          -88 -78 -59 -100 hvcurveto
          hintmask 1100111011100000
          -58 callgsubr
          hintmask 1010111101100000
          598 -56 -35 callsubr
        </CharString>
        <CharString name="s_t">
          336 -2 70 -54 -21 417 71 163 67 hstemhm
          41 71 174 68 -43 80 118 81 -51 72 hintmask 1011101100000000
          -84 callgsubr
          hintmask 1011110010000000
          -22 31 -11 48 38 vvcurveto
          76 48 29 51 44 42 -29 -52 -28 -3 -33 20 callsubr
          hintmask 0111110100000000
          0 -6 -121 -44 callsubr
          hintmask 1011110100000000
          -49 callsubr
          20 77 -135 -12 rlineto
          hintmask 1011110010000000
          5 29 5 35 30 vvcurveto
          90 -61 49 -84 -93 -87 -57 -108 -30 10 -33 11 -18 vhcurveto
          9 -32 -18 7 -48 -9 callgsubr
          hintmask 1011101100000000
          -168 270 62 -85 vvcurveto
          -37 -30 -30 -37 callgsubr
          endchar
        </CharString>
        <CharString name="scaron">
          -49 -2 67 345 71 212 -20 -61 callsubr
          55 -78 -51 callsubr
          91 560 -83 callsubr
        </CharString>
        <CharString name="section">
          -101 -221 93 785 -20 hstemhm
          15 85 5 87 -11 85 7 83 hintmask 11110100
          192 486 rmoveto
          79 128 1 0 vhcurveto
          -20 91 rlineto
          -63 -132 -32 -140 -26 3 -23 6 -20 hvcurveto
          -48 -18 -51 -37 -88 vvcurveto
          hintmask 11101100
          -177 166 -28 -105 vvcurveto
          -71 -98 -20 -64 vhcurveto
          18 -93 rlineto
          125 6 104 74 132 vvcurveto
          17 -3 16 -4 14 vhcurveto
          51 25 46 50 90 vvcurveto
          hintmask 11110100
          140 -164 20 123 vvcurveto
          -92 -211 rmoveto
          37 25 19 29 11 vhcurveto
          50 -64 69 -36 -68 vvcurveto
          -35 -23 -22 -31 -14 vhcurveto
          -49 54 -70 37 81 vvcurveto
          endchar
        </CharString>
        <CharString name="semicolon">
          -282 -89 -5 callgsubr
          142 26 callsubr
          29 25 callsubr
          99 108 -103 callgsubr
          -17 142 -84 callsubr
        </CharString>
        <CharString name="seven">
          33 2 -21 588 79 2 24 callgsubr
          388 575 -39 callgsubr
        </CharString>
        <CharString name="seven.onum">
          33 -162 -21 588 79 2 24 callgsubr
          381 411 -39 callgsubr
        </CharString>
        <CharString name="six">
          -77 callsubr
        </CharString>
        <CharString name="six.onum">
          -77 callsubr
        </CharString>
        <CharString name="slash">
          -104 3 -21 780 -20 hstem
          -32 -3 rmoveto
          73 -15 355 770 -75 10 rlineto
          endchar
        </CharString>
        <CharString name="space">
          -215 endchar
        </CharString>
        <CharString name="sterling">
          98 2 78 -61 -21 309 81 190 85 hstemhm
          140 95 -80 80 hintmask 10111000
          365 306 rmoveto
          15 85 -143 -5 rlineto
          -1 17 -1 18 17 vvcurveto
          98 32 42 59 37 62 -16 -34 27 vhcurveto
          43 92 rlineto
          26 -40 -59 17 -57 hhcurveto
          -101 -98 -52 -145 -27 2 -29 2 -28 hvcurveto
          -72 -45 -3 -30 82 2 rlineto
          hintmask 10110100
          2 -26 2 -26 -25 vvcurveto
          -66 -14 -97 -117 -10 vhcurveto
          -4 -52 rlineto
          hintmask 01111000
          472 -9 4 87 -315 -10 -1 6 rlineto
          50 51 12 65 71 vvcurveto
          13 0 14 -1 13 vhcurveto
          endchar
        </CharString>
        <CharString name="summation">
          31 -1 82 -63 -21 578 77 4 24 callgsubr
          31 590 rmoveto
          213 -266 -222 -276 1 -47 rlineto
          hintmask 01100000
          419 -4 rlineto
          91 vlineto
          -292 -14 186 249 -191 253 283 -2 rlineto
          hintmask 10010000
          -3 82 -392 -8 rlineto
          endchar
        </CharString>
        <CharString name="t">
          -56 -7 75 343 201 hstem
          88 81 vstem
          315 490 rmoveto
          -135 -12 15 134 rlineto
          -68 hlineto
          -28 -137 -83 -35 -7 -40 85 2 rlineto
          0 -6 -121 -64 callgsubr
          rlineto
          endchar
        </CharString>
        <CharString name="thorn">
          48 30 callgsubr
          258 -20 hstem
          74 81 243 87 vstem
          319 17 callgsubr
          -1 3 8 334 -85 -11 rlineto
          2 -391 0 -102 -46 vvcurveto
          -81 -4 -55 callsubr
        </CharString>
        <CharString name="three">
          -14 -10 14 callgsubr
          615 -74 callgsubr
        </CharString>
        <CharString name="three.onum">
          -14 -182 14 callgsubr
          443 -74 callgsubr
        </CharString>
        <CharString name="threequarters">
          312 3 -21 116 62 104 56 136 49 95 61 5 -20 hstemhm
          201 74 327 64 hintmask 11110111
          547 -58 callsubr
          hintmask 11111011
          -44 callgsubr
          -519 412 rmoveto
          -53 callsubr
          -2 callgsubr
        </CharString>
        <CharString name="threesuperior">
          -129 264 56 136 49 95 61 hstemhm
          202 74 -74 87 hintmask 11101000
          65 633 rmoveto
          21 -60 rlineto
          -53 callsubr
          hintmask 11110000
          -2 callgsubr
        </CharString>
        <CharString name="tilde">
          -60 callsubr
        </CharString>
        <CharString name="trademark">
          448 174 133 335 122 hstem
          50 186 71 115 66 196 62 37 callsubr
          50 482 rmoveto
          -239 276 -69 210 222 108 108 173 141 -97 168 -341 -242 -136 -102 -180 vhcurveto
          639 -174 rmoveto
          -10 183 -70 -180 rlineto
          -34 hlineto
          -85 184 -3 -189 -75 2 21 332 57 -1 101 -215 81 215 61 -1 26 -326 rlineto
          -361 329 rmoveto
          -7 -55 rlineto
          -83 hlineto
          -1 -274 rlineto
          -75 hlineto
          9 274 -84 -2 -1 59 rlineto
          endchar
        </CharString>
        <CharString name="two">
          -42 0 83 485 88 hstem
          305 91 vstem
          145 77 rmoveto
          84 119 167 162 127 vvcurveto
          96 -54 75 -137 -43 -61 -17 -56 -66 vhcurveto
          34 -80 rlineto
          42 32 54 23 48 hhcurveto
          54 48 -29 -65 -93 -150 -167 -108 -151 hvcurveto
          -6 -63 rlineto
          349 hlineto
          4 89 rlineto
          endchar
        </CharString>
        <CharString name="two.onum">
          -42 1 84 327 78 hstem
          294 87 vstem
          172 81 rmoveto
          89 77 120 82 102 vvcurveto
          94 -80 54 -95 -63 -66 -18 -33 -49 vhcurveto
          39 -79 rlineto
          32 25 54 20 47 hhcurveto
          55 46 -28 -50 -81 -152 -107 -88 -78 hvcurveto
          -5 -66 346 -1 -1 89 rlineto
          endchar
        </CharString>
        <CharString name="twosuperior">
          -133 266 69 258 67 hstem
          206 73 vstem
          141 331 -34 callgsubr
          229 -1 -1 73 rlineto
          endchar
        </CharString>
        <CharString name="u">
          34 -5 83 -65 -21 489 -20 hstemhm
          49 85 hintmask 10110000
          459 -99 callgsubr
          endchar
        </CharString>
        <CharString name="uacute">
          -95 callgsubr
          -190 559 -90 callsubr
        </CharString>
        <CharString name="ucircumflex">
          -95 callgsubr
          -74 524 -100 callgsubr
        </CharString>
        <CharString name="udieresis">
          54 -5 83 -65 -21 541 26 callgsubr
          64 85 -21 27 callgsubr
          hintmask 10110100
          474 -104 callgsubr
          hintmask 01101100
          16 -98 rlineto
          -95 591 -105 callgsubr
        </CharString>
        <CharString name="ugrave">
          -95 callgsubr
          -153 701 -73 callgsubr
        </CharString>
        <CharString name="underscore">
          135 0 23 callgsubr
          55 -2 8 callgsubr
        </CharString>
        <CharString name="uni00AD">
          -155 -50 callsubr
        </CharString>
        <CharString name="v">
          12 14 -21 489 -20 hstem
          370 480 rmoveto
          -118 -386 -136 388 -96 -17 63 -166 62 -154 60 -152 rlinecurve
          89 8 58 162 55 148 53 154 rlinecurve
          endchar
        </CharString>
        <CharString name="w">
          353 14 -21 489 -20 hstem
          366 467 rmoveto
          -128 -373 -121 386 -94 -15 53 -154 58 -148 58 -162 rlinecurve
          89 -8 41 117 36 101 41 104 rlinecurve
          35 -98 45 -112 38 -104 91 -8 rcurveline
          60 152 62 154 63 166 -94 17 rcurveline
          -133 -400 -118 387 rlineto
          endchar
        </CharString>
        <CharString name="x">
          21 12 -21 491 -20 hstem
          464 6 rmoveto
          -165 236 -4 3 59 75 58 72 57 73 rlinecurve
          -94 12 -46 -61 -45 -61 -45 -60 rlinecurve
          -123 187 -94 -26 172 -221 -58 -77 -58 -78 -58 -77 rlinecurve
          87 -12 47 68 48 65 49 63 rlinecurve
          119 -196 rlineto
          endchar
        </CharString>
        <CharString name="y">
          22 -228 74 638 -20 hstem
          -4 callgsubr
          rlineto
          15 -39 18 -41 -40 -66 callsubr
          endchar
        </CharString>
        <CharString name="yacute">
          22 -228 74 847 -20 hstem
          -4 callgsubr
          11 -28 9 -24 6 -23 -40 callgsubr
          -257 89 -90 callsubr
        </CharString>
        <CharString name="ydieresis">
          22 -228 74 687 110 hstem
          138 27 callgsubr
          vstem
          -4 callgsubr
          12 -30 8 -26 6 -19 -40 callgsubr
          -165 121 -105 callgsubr
        </CharString>
        <CharString name="yen">
          82 0 181 -62 62 55 62 372 -20 hstemhm
          249 98 hintmask 10111000
          454 117 rmoveto
          10 66 rlineto
          0 -63 -2 -59 vhcurveto
          -2 55 rlineto
          -1 40 56 -2 15 hhcurveto
          4 12 67 0 0 -57 -1 -53 -1 hvcurveto
          189 337 -20 callgsubr
          216 -311 rlineto
          -33 -40 1 1 -27 hvcurveto
          -10 -66 rlineto
          0 70 1 62 1 vhcurveto
          -2 -55 rlineto
          -40 -59 2 1 -15 hvcurveto
          -4 -14 -67 0 hvcurveto
          hintmask 01111000
          0 73 1 57 1 vhcurveto
          hintmask 10111000
          -4 -119 rlineto
          103 hlineto
          hintmask 01111000
          -5 119 rlineto
          35 42 -1 -1 32 hvcurveto
          endchar
        </CharString>
        <CharString name="z">
          21 callgsubr
          2 -20 hstemhm
          hintmask 01010000
          40 64 rmoveto
          9 -71 rlineto
          hintmask 10010000
          6 57 81 2 72 hhcurveto
          hintmask 00101000
          0 callgsubr
          hintmask 10010000
          -2 -68 -58 0 -58 hhcurveto
          hintmask 10001000
          -58 -44 0 2 -66 hvcurveto
          hintmask 10010000
          4 -80 86 6 92 3 84 -2 rlinecurve
          endchar
        </CharString>
        <CharString name="zcaron">
          21 callgsubr
          233 -20 hstemhm
          hintmask 01011000
          40 64 rmoveto
          9 -71 rlineto
          hintmask 10011000
          6 57 81 2 72 hhcurveto
          hintmask 00111000
          0 callgsubr
          -2 -68 -58 0 -58 hhcurveto
          -58 -44 0 2 -66 hvcurveto
          4 -80 rlineto
          6 86 97 1 79 hhcurveto
          -146 304 -83 callsubr
        </CharString>
        <CharString name="zero">
          14 -9 82 500 81 hstem
          26 85 250 91 vstem
          250 -9 rmoveto
          122 80 163 162 169 -66 169 -137 -144 -79 -177 -171 -159 69 -156 155 hvcurveto
          -139 338 rmoveto
          154 63 90 57 90 40 -123 -124 -127 -41 -126 -70 -109 -30 175 81 vhcurveto
          endchar
        </CharString>
        <CharString name="zero.onum">
          37 -9 82 334 81 hstem
          18 86 283 90 vstem
          259 -9 rmoveto
          144 74 125 125 124 -73 123 -146 -156 -84 -131 -127 -121 76 -118 165 hvcurveto
          -19 416 rmoveto
          99 48 -87 -85 -82 -44 -80 -84 -109 -46 80 82 85 51 87 85 hvcurveto
          endchar
        </CharString>
        <CharString name="zerosuperior">
          30 266 56 276 64 hstem
          74 72 171 75 vstem
          241 266 rmoveto
          91 60 97 96 102 -50 101 -102 -107 -59 -106 -103 -94 52 -93 115 hvcurveto
          -95 198 rmoveto
          85 43 49 40 61 27 -67 -70 -69 -28 -70 -48 -74 -21 97 45 vhcurveto
          endchar
        </CharString>
      <CharString index="0">
        46 19 30 33 30 -20 15 -31 -42 -27 -28 -33 -30 24 -17 31 hvcurveto
        return
      </CharString>
      <CharString index="1">
        3 -44 rlineto
        71 hlineto
        -1 116 0 75 104 vvcurveto
        109 -43 78 -119 -69 -59 -32 -56 -43 vhcurveto
        45 -51 rlineto
        -70 callgsubr
        -53 callgsubr
        hvcurveto
        268 10 rmoveto
        return
      </CharString>
      <CharString index="2">
        -107 callsubr
        endchar
      </CharString>
      <CharString index="3">
        -3 rmoveto
        -94 callgsubr
        94 2 94 2 96 hvcurveto
        -28 callsubr
        -65 -63 vvcurveto
        -87 47 -79 90 105 68 97 0 vhcurveto
        6 -2 rlineto
        return
      </CharString>
      <CharString index="4">
        rmoveto
        -106 callsubr
        return
      </CharString>
      <CharString index="5">
        -50 callgsubr
        212 16 callgsubr
        hintmask 10111110
        -78 callsubr
        hintmask 01111110
        -106 callgsubr
        hintmask 10111110
        -81 callgsubr
        return
      </CharString>
      <CharString index="6">
        rmoveto
        82 35 -130 142 rlineto
        -22 hlineto
        -131 -142 82 -35 60 104 rlineto
        return
      </CharString>
      <CharString index="7">
        -101 callgsubr
        endchar
      </CharString>
      <CharString index="8">
        -104 callgsubr
        hintmask 01110000
        16 -98 rlineto
        return
      </CharString>
      <CharString index="9">
        382 649 rmoveto
        7 -90 4 -83 -68 vvcurveto
        -226 -45 -102 -93 -107 -18 170 225 55 1 63 1 59 vhcurveto
        -92 -11 rlineto
        -203 vlineto
        -229 17 -215 180 211 36 192 200 vhcurveto
        99 -9 98 74 vvcurveto
        return
      </CharString>
      <CharString index="10">
        -92 callsubr
        -202 -57 -83 -87 -11 callgsubr
        vhcurveto
        return
      </CharString>
      <CharString index="11">
        -20 hstem
        40 90 263 91 vstem
        -98 callgsubr
        return
      </CharString>
      <CharString index="12">
        54 -5 83 -65 -21 701 -20 hstemhm
        64 85 hintmask 10110000
        474 -99 callgsubr
        return
      </CharString>
      <CharString index="13">
        0 -18 141 41 vvcurveto
        57 -4 245 0 vhcurveto
        -87 -6 rlineto
        0 5 -60 -39 vvcurveto
        -51 -5 -69 -8 -53 vhcurveto
        -84 -13 -67 -41 -49 hhcurveto
        -66 -13 58 61 return
      </CharString>
      <CharString index="14">
        -94 callsubr
        66 -28 32 callsubr
        return
      </CharString>
      <CharString index="15">
        rmoveto
        -25 callgsubr
      </CharString>
      <CharString index="16">
        vvcurveto
        -57 4 -255 0 vhcurveto
        92 6 rlineto
        -2 6 -2 103 32 vvcurveto
        41 1 45 13 38 vhcurveto
        80 26 58 50 48 hhcurveto
        40 33 -35 -82 -11 callsubr
        hvcurveto
        92 6 rlineto
        0 -5 64 77 45 2 65 63 vvcurveto
        return
      </CharString>
      <CharString index="17">
        rmoveto
        0 5 -127 -41 vvcurveto
        -57 2 -6 callgsubr
        -5 60 39 vvcurveto
        51 0 43 13 52 vhcurveto
        77 20 82 75 49 hhcurveto
        51 8 -58 -61 -11 callsubr
        hvcurveto
        -13 callsubr
        98 vlineto
        87 -21 79 -97 -93 -94 -129 0 vhcurveto
        -7 1 -15 115 rlineto
        return
      </CharString>
      <CharString index="18">
        rmoveto
        55 -35 128 142 -82 35 rlineto
        return
      </CharString>
      <CharString index="19">
        -20 hstem
        36 38 callgsubr
        -97 callsubr
        return
      </CharString>
      <CharString index="20">
        -15 -21 -15 -22 -16 -18 rrcurveto
        -43 45 77 -31 89 hhcurveto
        81 78 55 87 hvcurveto
        return
      </CharString>
      <CharString index="21">
        300 -4 rlineto
        91 vlineto
        -216 -6 rlineto
        213 vlineto
        171 -4 1 88 -175 -3 -4 192 218 -1 return
      </CharString>
      <CharString index="22">
        -91 callgsubr
        87 -35 78 -97 -93 -78 -117 0 vhcurveto
        -8 2 rlineto
        return
      </CharString>
      <CharString index="23">
        67 37 callgsubr
        -82 callgsubr
        return
      </CharString>
      <CharString index="24">
        9 -9 75 523 71 hstemhm
        36 80 -53 85 192 83 -64 83 hintmask 11011000
        334 365 rmoveto
        57 25 32 73 53 vvcurveto
        99 -84 45 -83 -120 -73 -74 -87 -49 20 -53 70 -42 vhcurveto
        hintmask 11100100
        -77 -37 -40 -67 -73 vvcurveto
        -91 63 -96 131 127 85 97 103 64 -34 66 -74 44 vhcurveto
        -107 -39 rmoveto
        71 -26 61 -36 -76 vvcurveto
        -82 -64 -40 -65 -80 -34 61 57 65 43 63 68 14 vhcurveto
        hintmask 11011000
        -79 175 rmoveto
        61 44 27 51 50 47 -28 -59 -49 -32 -40 -51 -18 vhcurveto
        -64 25 -45 28 53 vvcurveto
        endchar
      </CharString>
      <CharString index="25">
        -93 callgsubr
        37 67 rlineto
        return
      </CharString>
      <CharString index="26">
        -56 -2 -47 -25 -49 hhcurveto
        -59 -30 39 41 38 29 39 59 49 49 -25 -51 1 hvcurveto
        return
      </CharString>
      <CharString index="27">
        rlineto
        3 -144 6 -142 -137 vvcurveto
        79 4 rlineto
        483 return
      </CharString>
      <CharString index="28">
        319 171 rmoveto
        55 -189 86 19 -208 647 -79 -6 -29 callsubr
        rlineto
        return
      </CharString>
      <CharString index="29">
        -86 rmoveto
        8 -8 rlineto
        2 7 7 1 7 hhcurveto
        27 28 -7 -38 -35 -24 -12 -28 -24 -26 11 13 -12 hvcurveto
        -21 -60 rlineto
        -9 23 28 -6 28 hhcurveto
        68 65 24 73 52 -45 32 -43 -4 -4 0 -1 -4 hvcurveto
        return
      </CharString>
      <CharString index="30">
        4 callgsubr
        201 -20 10 callgsubr
        hintmask 11110110
        -87 callsubr
        hintmask 11111010
        -61 callgsubr
        return
      </CharString>
      <CharString index="31">
        -20 hstemhm
        48 90 hintmask 10111100
        -14 callgsubr
        hintmask 01111100
        -86 callgsubr
        -4 89 rlineto
        return
      </CharString>
      <CharString index="32">
        -71 -47 -3 -30 -88 callsubr
        return
      </CharString>
      <CharString index="33">
        rmoveto
        26 -69 rlineto
        28 29 55 16 40 hhcurveto
        62 46 -34 -58 -82 -102 -28 -64 hvcurveto
        -8 -62 rlineto
        1 9 9 0 9 hhcurveto
        109 42 -58 -83 -62 -43 -58 -71 -39 -58 21 21 -17 callgsubr
        146 79 115 107 63 -39 71 -62 24 hvcurveto
        65 39 29 52 51 vvcurveto
        78 -70 72 -124 1 vhcurveto
        -49 -62 -16 -32 -39 hvcurveto
        endchar
      </CharString>
      <CharString index="34">
        -72 callsubr
        endchar
      </CharString>
      <CharString index="35">
        rmoveto
        -107 callgsubr
        return
      </CharString>
      <CharString index="36">
        -88 callsubr
        305 95 vvcurveto
        142 -3 15 85 -154 -6 rlineto
        return
      </CharString>
      <CharString index="37">
        40 35 32 27 48 hhcurveto
        50 38 -45 -86 hvcurveto
        -38 vlineto
        return
      </CharString>
      <CharString index="38">
        -1 callsubr
        214 -88 callgsubr
        return
      </CharString>
      <CharString index="39">
        hstem
        26 81 165 80 vstem
        272 173 rmoveto
        -99 -96 -8 -71 -43 -36 6 0 vhcurveto
        18 -84 rlineto
        149 1 159 28 173 197 -245 -68 148 vvcurveto
        87 64 28 85 24 27 -3 -6 27 vhcurveto
        -17 81 rlineto
        3 -23 -21 2 -20 hhcurveto
        -149 -78 -78 -117 hvcurveto
        -209 246 39 -121 vvcurveto
        return
      </CharString>
      <CharString index="40">
        rmoveto
        55 39 rlineto
        -55 vlineto
        -24 0 -16 -1 -31 vhcurveto
        -5 -158 rlineto
        80 hlineto
        -5 147 rlineto
        -1 17 0 56 57 vvcurveto
        108 vlineto
        -54 -5 -92 -100 rlineto
        endchar
      </CharString>
      <CharString index="41">
        vstem
        160 -12 callgsubr
        -172 -4 4 -77 3 -1 24 3 42 4 rlineto
        2 -96 3 -218 -62 -47 callgsubr
        82 54 63 89 -6 68 rlinecurve
        -18 callgsubr
        return
      </CharString>
      <CharString index="42">
        -103 callgsubr
        154 hmoveto
        -25 callgsubr
      </CharString>
      <CharString index="43">
        -44 callsubr
        -49 callsubr
        return
      </CharString>
      <CharString index="44">
        rmoveto
        214 24 110 230 188 vvcurveto
        132 -69 100 -143 -118 -85 -110 -112 -121 74 -81 97 42 46 15 33 46 vhcurveto
        -17 -135 -112 -79 -125 -18 rrcurveto
        144 538 rmoveto
        90 39 -75 -61 -102 -51 -42 -80 -77 -32 88 60 76 54 56 57 hvcurveto
        endchar
      </CharString>
      <CharString index="45">
        -145 -72 -142 -113 -135 61 -95 131 return
      </CharString>
      <CharString index="46">
        -58 -80 rmoveto
        8 23 38 4 20 hhcurveto
        74 68 -50 -75 -87 -105 -39 -67 -11 -30 1 1 -10 hvcurveto
        return
      </CharString>
      <CharString index="47">
        -330 0 vhcurveto
        93 7 rlineto
        0 -4 144 -2 117 vhcurveto
        -24 28 32 -15 46 hhcurveto
        138 82 158 126 106 -55 84 -111 return
      </CharString>
      <CharString index="48">
        43 27 30 32 20 -13 22 -24 -6 -6 -3 -3 -7 hvcurveto
        -4 4 70 83 -64 33 rlineto
        0 -71 -108 -53 vvcurveto
        -35 18 -22 37 vhcurveto
        return
      </CharString>
      <CharString index="49">
        -168 270 58 -81 -51 callsubr
        return
      </CharString>
      <CharString index="50">
        -114 -390 -138 394 -98 -23 158 -385 return
      </CharString>
      <CharString index="51">
        153 -10 rmoveto
        -21 486 267 -486 61 -2 17 662 -98 7 7 -465 -240 454 -95 -5 14 -647 rlineto
        return
      </CharString>
      <CharString index="52">
        rmoveto
        -259 -195 vlineto
        214 384 -75 40 -227 -441 9 -65 rlineto
        hintmask 01110000
        6 59 84 2 75 hhcurveto
        57 hlineto
        hintmask 10110000
        4 -165 rlineto
        91 hlineto
        -5 164 rlineto
        -1 35 28 0 13 hhcurveto
        1 76 rlineto
        -79 hlineto
        -8 256 rlineto
        endchar
      </CharString>
      <CharString index="53">
        -52 callgsubr
        -95 18 -57 callgsubr
        rlineto
        return
      </CharString>
      <CharString index="54">
        28 -31 -39 13 -39 hhcurveto
        -80 -78 -54 -97 return
      </CharString>
      <CharString index="55">
        110 34 hvcurveto
        33 108 143 388 0 vvcurveto
        return
      </CharString>
      <CharString index="56">
        2 207 18 2 18 4 17 6 rlinecurve
        140 -232 96 20 -160 249 return
      </CharString>
      <CharString index="57">
        -54 -8 67 -39 -21 217 65 128 72 return
      </CharString>
      <CharString index="58">
        -20 hstem
        341 82 vstem
        341 297 -74 callsubr
        return
      </CharString>
      <CharString index="59">
        -164 36 -128 167 137 83 156 126 106 -56 92 -111 -79 -43 -42 -45 -43 vhcurveto
        -8 5 return
      </CharString>
      <CharString index="60">
        vvcurveto
        2 -283 81 6 -51 callgsubr
        return
      </CharString>
      <CharString index="61">
        -20 hstem
        60 89 vstem
        -62 callsubr
        return
      </CharString>
      <CharString index="62">
        -89 -5 callgsubr
        hstem
        27 25 callsubr
        97 108 -92 callgsubr
      </CharString>
      <CharString index="63">
        -111 -470 -38 callgsubr
        -36 callsubr
        return
      </CharString>
      <CharString index="64">
        rmoveto
        34 14 19 12 21 hhcurveto
        return
      </CharString>
      <CharString index="65">
        -43 callgsubr
        hintmask 11100111
        -93 callsubr
        hintmask 11001011
        -67 callsubr
      </CharString>
      <CharString index="66">
        0 -44 -58 -86 -66 -58 53 88 vhcurveto
        return
      </CharString>
      <CharString index="67">
        rlinecurve
        4 -16 3 -14 -15 -66 callsubr
        return
      </CharString>
      <CharString index="68">
        rmoveto
        -286 -547 83 -47 38 95 42 90 43 88 rlinecurve
        53 111 54 109 49 121 -13 55 rcurveline
        hintmask 11000000
        -2 -66 -51 0 -47 hhcurveto
        -213 1 3 -85 rlineto
        endchar
      </CharString>
      <CharString index="69">
        rmoveto
        113 212 -65 23 -116 -250 6 -52 rlineto
        4 35 51 1 44 hhcurveto
        31 hlineto
        return
      </CharString>
      <CharString index="70">
        -47 -62 -69 30 38 -36 vhcurveto
        return
      </CharString>
      <CharString index="71">
        -100 callsubr
        endchar
      </CharString>
      <CharString index="72">
        -20 hstem
        58 84 240 86 vstem
        -56 callgsubr
        return
      </CharString>
      <CharString index="73">
        rmoveto
        52 68 86 80 71 vvcurveto
        76 -55 34 -61 -40 -42 -15 -26 -31 vhcurveto
        31 -68 rlineto
        26 15 30 16 27 hhcurveto
        28 25 -17 -40 -53 -78 -92 -68 -71 hvcurveto
        -4 -53 return
      </CharString>
      <CharString index="74">
        -34 -26 -63 -34 -56 hhcurveto
        -74 -45 94 85 84 31 86 98 38 55 -18 -16 23 hvcurveto
        return
      </CharString>
      <CharString index="75">
        rmoveto
        -101 -50 -74 -72 -68 52 -66 89 95 45 return
      </CharString>
      <CharString index="76">
        -167 79 -170 162 1 return
      </CharString>
      <CharString index="77">
        -126 59 -101 136 98 64 46 34 28 hvcurveto
        -41 51 rlineto
        -33 callgsubr
        endchar
      </CharString>
      <CharString index="78">
        rmoveto
        -87 -39 69 73 95 60 98 85 73 28 -67 -72 -91 -49 -105 -71 hvcurveto
        endchar
      </CharString>
      <CharString index="79">
        -12 callsubr
        hvcurveto
        -141 -2 return
      </CharString>
      <CharString index="80">
        31 -30 -45 29 -54 hhcurveto
        -140 -84 -158 -128 -108 55 -86 115 return
      </CharString>
      <CharString index="81">
        58 -95 71 -92 -104 -115 -78 -176 vhcurveto
        -13 callgsubr
        return
      </CharString>
      <CharString index="82">
        -106 callsubr
        endchar
      </CharString>
      <CharString index="83">
        rlineto
        hintmask 10000000
        0 68 2 66 vhcurveto
        hintmask 01100000
        27 41 -2 -1 20 hvcurveto
        4 27 return
      </CharString>
      <CharString index="84">
        rmoveto
        -147 164 -59 -51 121 -112 -121 -114 59 -51 rlineto
        return
      </CharString>
      <CharString index="85">
        rmoveto
        59 51 -121 114 121 112 -59 51 -147 -164 rlineto
        return
      </CharString>
      <CharString index="86">
        rmoveto
        -216 -97 -184 -177 -178 156 -133 174 174 122 131 212 213 -96 116 -217 hvcurveto
        return
      </CharString>
      <CharString index="87">
        -77 35 -165 -327 -213 320 -74 -54 return
      </CharString>
      <CharString index="88">
        hstem
        20 callgsubr
        vstem
        -76 callsubr
        return
      </CharString>
      <CharString index="89">
        -70 16 -20 -100 -75 -94 -102 -12 rlinecurve
        return
      </CharString>
      <CharString index="90">
        -25 hvcurveto
        -52 -72 rlineto
        -32 50 53 -14 49 hhcurveto
        return
      </CharString>
      <CharString index="91">
        5 callsubr
        -130 -44 133 136 104 44 129 122 36 35 -14 -32 22 hvcurveto
        return
      </CharString>
      <CharString index="92">
        83 63 59 -36 0 vhcurveto
        23 83 rlineto
        0 -55 33 -112 -113 -49 -122 -130 vhcurveto
        -71 -47 rlineto
        endchar
      </CharString>
      <CharString index="93">
        42 640 rmoveto
        12 -639 rlineto
        return
      </CharString>
      <CharString index="94">
        -75 callgsubr
        307 95 vvcurveto
        return
      </CharString>
      <CharString index="95">
        318 rmoveto
        66 8 345 0 vhcurveto
        return
      </CharString>
      <CharString index="96">
        -85 -72 102 156 return
      </CharString>
      <CharString index="97">
        -83 -26 81 61 78 48 75 78 55 69 -54 -87 return
      </CharString>
      <CharString index="98">
        hhcurveto
        -88 -80 -58 -100 hvcurveto
        return
      </CharString>
      <CharString index="99">
        -6 -7 72 343 70 return
      </CharString>
      <CharString index="100">
        190 125 122 211 240 -150 75 -180 -88 -21 0 -2 -17 hvcurveto
        return
      </CharString>
      <CharString index="101">
        -245 0 vhcurveto
        89 6 rlineto
        0 return
      </CharString>
      <CharString index="102">
        -21 114 104 return
      </CharString>
      <CharString index="103">
        379 480 rmoveto
        -57 callgsubr
        return
      </CharString>
      <CharString index="104">
        -18 callgsubr
        endchar
      </CharString>
      <CharString index="105">
        43 23 21 31 30 vvcurveto
        46 -45 43 -78 -29 -36 -9 -19 -23 vhcurveto
        endchar
      </CharString>
      <CharString index="106">
        -168 -3 -168 0 -168 3 rrcurveto
        return
      </CharString>
      <CharString index="107">
        72 55 -2 28 hhcurveto
        1 75 -275 -11 270 356 -3 63 rlineto
        return
      </CharString>
      <CharString index="108">
        114 -21 328 -20 hstem
        return
      </CharString>
      <CharString index="109">
        17 -21 422 65 return
      </CharString>
      <CharString index="110">
        -21 250 74 280 70 hstem
        45 84 240 91 vstem
        136 return
      </CharString>
      <CharString index="111">
        -19 7 -21 271 75 251 68 return
      </CharString>
      <CharString index="112">
        68 62 rlineto
        45 -35 -59 20 -59 hhcurveto
        return
      </CharString>
      <CharString index="113">
        78 504 75 return
      </CharString>
      <CharString index="114">
        vvcurveto
        194 -3 184 0 vhcurveto
        -64 6 -11 -58 -9 -3 rlineto
        return
      </CharString>
      <CharString index="115">
        rmoveto
        498 5 rlineto
        hintmask 10000000
        -3 72 rlineto
        -500 hlineto
        endchar
      </CharString>
      <CharString index="116">
        361 -12 4 87 -274 -6 return
      </CharString>
      <CharString index="117">
        hstemhm
        47 73 -73 88 208 79 return
      </CharString>
      <CharString index="118">
        -2 -84 -84 0 -84 hhcurveto
        return
      </CharString>
      <CharString index="119">
        1 84 84 1 84 hhcurveto
        return
      </CharString>
      <CharString index="120">
        132 110 100 122 109 -75 107 -144 return
      </CharString>
      <CharString index="121">
        76 261 61 202 73 hstem
        314 93 vstem
        56 return
      </CharString>
      <CharString index="122">
        82 324 74 14 -20 hstemhm
        42 92 242 83 return
      </CharString>
      <CharString index="123">
        10 callsubr
        86 return
      </CharString>
      <CharString index="124">
        474 rmoveto
        -79 -36 -36 -45 -43 hvcurveto
        -9 2 return
      </CharString>
      <CharString index="125">
        68 34 -20 hstem
        50 72 137 72 79 72 return
      </CharString>
      <CharString index="126">
        -241 68 -53 -21 903 68 6 -20 hstemhm
        return
      </CharString>
      <CharString index="127">
        18 151 -88 88 return
      </CharString>
      <CharString index="128">
        -13 1 67 -54 -21 27 -21 403 78 return
      </CharString>
      <CharString index="129">
        vlineto
        -62 -1 -134 -127 rlineto
        endchar
      </CharString>
      <CharString index="130">
        75 -56 -21 hstemhm
        hintmask 01000000
        return
      </CharString>
      <CharString index="131">
        -20 hstemhm
        hintmask 10100000
        return
      </CharString>
      <CharString index="132">
        -139 -126 return
      </CharString>
      <CharString index="133">
        110 hstemhm
        return
      </CharString>
      <CharString index="134">
        98 73 98 return
      </CharString>
      <CharString index="135">
        81 295 74 5 -20 hstemhm
        36 84 return
      </CharString>
      <CharString index="136">
        -21 -3 78 -63 -21 663 -20 hstemhm
        return
      </CharString>
      <CharString index="137">
        -208 -21 229 77 322 75 return
      </CharString>
      <CharString index="138">
        vvcurveto
        -72 -73 0 2 -72 hvcurveto
        endchar
      </CharString>
      <CharString index="139">
        108 hstemhm
        return
      </CharString>
      <CharString index="140">
        -191 -213 81 543 68 return
      </CharString>
      <CharString index="141">
        212 -2 74 589 -20 hstem
        return
      </CharString>
      <CharString index="142">
        30 -4 88 -70 -21 573 78 return
      </CharString>
      <CharString index="143">
        12 callsubr
        -1 return
      </CharString>
      <CharString index="144">
        133 rmoveto
        return
      </CharString>
      <CharString index="145">
        88 301 return
      </CharString>
</ttFont>
